<svg width="774" height="200" viewBox="0 0 774 200" fill="none" xmlns="http://www.w3.org/2000/svg">
<path d="M25.7617 129.2C18.5617 129.2 12.7617 127.6 8.36172 124.4C3.16172 120.8 0.561719 115.6 0.561719 108.8C0.561719 101.067 3.82839 93.9333 10.3617 87.4C16.0951 81.6667 23.0284 77.6667 31.1617 75.4C37.8284 73.5333 46.4951 72.1333 57.1617 71.2C67.8284 70.2667 80.4284 69.8667 94.9617 70C98.6951 65.6 101.762 62 104.162 59.2C106.562 56.2667 108.628 53.7333 110.362 51.6C112.095 49.4667 113.762 47.4 115.362 45.4C117.095 43.2667 119.028 40.7333 121.162 37.8L132.362 22.8C133.028 22.1333 133.628 21.8 134.162 21.8C135.895 21.8 136.762 22.6 136.762 24.2C136.762 24.3333 136.628 24.8 136.362 25.6L123.962 42.2C123.162 43.2667 121.828 45 119.962 47.4C118.095 49.8 116.095 52.4667 113.962 55.4C111.828 58.3333 109.695 61.1333 107.562 63.8C105.562 66.4667 103.962 68.6 102.762 70.2C106.095 70.3333 109.362 70.6667 112.562 71.2C115.895 71.7333 119.162 72.3333 122.362 73C126.095 56.2 130.895 40.3333 136.762 25.4C137.695 23.1333 138.762 20.6667 139.962 18C141.162 15.2 142.762 11.8 144.762 7.8C145.162 6.86666 146.962 5.46666 150.162 3.59999C153.228 1.73333 155.295 0.799995 156.362 0.799995C157.562 0.799995 158.162 1.4 158.162 2.6C158.162 3 157.828 3.73333 157.162 4.79999C145.695 23.8667 136.295 47.2 128.962 74.8C134.962 76.5333 137.962 78.2667 137.962 80C137.962 81.3333 137.228 82 135.762 82C135.628 82 135.162 81.8667 134.362 81.6C133.562 81.2 132.828 80.9333 132.162 80.8C131.095 80.2667 130.162 79.9333 129.362 79.8C128.562 79.5333 128.028 79.3333 127.762 79.2C125.895 87.2 124.428 94.4 123.362 100.8C122.428 107.067 121.962 112.533 121.962 117.2C121.962 121.733 122.628 124 123.962 124C125.162 124 126.762 123.2 128.762 121.6C130.895 119.867 132.162 119 132.562 119C133.762 119 134.362 119.733 134.362 121.2C134.362 122.667 133.095 124.133 130.562 125.6C128.028 127.2 125.828 128 123.962 128C118.895 128 116.362 123.8 116.362 115.4C116.362 111.133 116.762 105.867 117.562 99.6C118.362 93.3333 119.628 86.1333 121.362 78C118.028 77.4667 114.362 77.1333 110.362 77C106.495 76.7333 102.295 76.5333 97.7617 76.4C95.7617 78.9333 93.4951 81.6667 90.9617 84.6C88.4284 87.5333 85.4284 90.8 81.9617 94.4C77.5617 99.2 73.8951 103.067 70.9617 106C68.0284 108.933 65.4951 111.333 63.3617 113.2C61.3617 114.933 59.3617 116.533 57.3617 118C47.3617 125.467 36.8284 129.2 25.7617 129.2ZM23.3617 121.4C33.3617 121.4 43.2951 118.067 53.1617 111.4C56.2284 109.267 59.7617 106.4 63.7617 102.8C67.8951 99.0667 72.2951 94.7333 76.9617 89.8C78.6951 87.9333 80.5617 86 82.5617 84C84.5617 81.8667 86.8284 79.3333 89.3617 76.4H83.7617C72.2951 76.4 62.2284 76.8 53.5617 77.6C44.8951 78.2667 37.6284 79.4 31.7617 81C28.4284 81.9333 25.2284 83.2667 22.1617 85C19.2284 86.7333 16.6284 88.6667 14.3617 90.8C8.76172 96.1333 5.96172 102 5.96172 108.4C5.96172 112.533 7.82839 115.867 11.5617 118.4C14.7617 120.4 18.6951 121.4 23.3617 121.4ZM186.962 119.2C179.362 119.2 175.562 114.4 175.562 104.8C175.562 100.533 176.228 96.4 177.562 92.4C179.028 88.4 180.695 84.7333 182.562 81.4C177.895 85.5333 172.962 90.6667 167.762 96.8C162.695 102.8 157.695 109.533 152.762 117C151.962 118.2 151.362 118.8 150.962 118.8C149.762 118.8 149.162 117.6 149.162 115.2C149.162 114.667 149.295 114.133 149.562 113.6C151.028 110 152.495 105.867 153.962 101.2C155.428 96.4 156.895 90.8 158.362 84.4C158.628 83.0667 158.895 81.7333 159.162 80.4C159.428 79.0667 159.828 77.3333 160.362 75.2C160.628 74.4 161.562 73.4667 163.162 72.4C164.495 71.4667 165.828 71 167.162 71C168.095 71 168.562 71.4 168.562 72.2C168.562 72.8667 167.762 75.7333 166.162 80.8C164.562 85.8667 162.228 93.1333 159.162 102.6C159.962 101.533 161.628 99.6 164.162 96.8C166.695 93.8667 170.028 90.1333 174.162 85.6L186.562 72C187.495 71.0667 188.562 70.6 189.762 70.6C192.828 70.6 194.362 72.1333 194.362 75.2C194.362 75.8667 194.095 76.6667 193.562 77.6C186.095 89.8667 182.362 99.6 182.362 106.8C182.362 111.867 184.762 114.4 189.562 114.4C193.028 114.4 197.028 112.467 201.562 108.6C203.428 107.133 205.028 105.533 206.362 103.8C207.828 101.933 209.362 99.9333 210.962 97.8C213.762 93.9333 215.362 92 215.762 92C216.162 92 216.362 92.4 216.362 93.2C216.362 94 215.962 95.1333 215.162 96.6C206.095 111.667 196.695 119.2 186.962 119.2ZM213.226 118.6C209.092 118.6 207.026 116.333 207.026 111.8C207.026 105 210.359 96.6667 217.026 86.8C223.559 77.0667 230.026 71.0667 236.426 68.8C237.626 68.4 238.759 68.0667 239.826 67.8C240.892 67.5333 241.959 67.4 243.026 67.4C247.826 67.4 251.292 69.0667 253.426 72.4C253.826 72.9333 254.026 73.4 254.026 73.8C254.026 74.0667 253.559 74.2667 252.626 74.4C251.826 74.5333 251.159 75 250.626 75.8C247.426 81 245.826 88.8 245.826 99.2C245.826 108.8 247.892 113.6 252.026 113.6C254.826 113.6 258.892 110.667 264.226 104.8C265.026 104 266.159 102.6 267.626 100.6C269.092 98.6 270.559 96.6 272.026 94.6C273.492 92.4667 274.492 91.0667 275.026 90.4C275.426 90 275.759 89.8 276.026 89.8C276.559 89.8 276.826 90.2667 276.826 91.2C276.826 91.8667 276.426 92.8 275.626 94C272.692 98.6667 269.359 103.2 265.626 107.6C261.892 112 258.692 114.867 256.026 116.2C253.626 117.4 251.226 118 248.826 118C240.692 118 236.626 112.267 236.626 100.8C236.626 99.8667 236.626 98.9333 236.626 98C236.759 96.9333 236.892 95.8667 237.026 94.8C227.959 110.667 220.026 118.6 213.226 118.6ZM216.626 112.6C218.092 112.6 219.826 111.8 221.826 110.2C223.826 108.467 225.892 106.2 228.026 103.4C231.226 99.1333 234.226 94.6 237.026 89.8C239.826 85 242.292 79.8 244.426 74.2C244.026 74.0667 243.426 74 242.626 74C237.159 74 231.626 77.4 226.026 84.2C217.892 93.9333 213.826 102 213.826 108.4C213.826 111.2 214.759 112.6 216.626 112.6ZM300.829 119.2C293.229 119.2 289.429 114.4 289.429 104.8C289.429 100.533 290.096 96.4 291.429 92.4C292.896 88.4 294.562 84.7333 296.429 81.4C291.762 85.5333 286.829 90.6667 281.629 96.8C276.562 102.8 271.562 109.533 266.629 117C265.829 118.2 265.229 118.8 264.829 118.8C263.629 118.8 263.029 117.6 263.029 115.2C263.029 114.667 263.162 114.133 263.429 113.6C264.896 110 266.362 105.867 267.829 101.2C269.296 96.4 270.762 90.8 272.229 84.4C272.496 83.0667 272.762 81.7333 273.029 80.4C273.296 79.0667 273.696 77.3333 274.229 75.2C274.496 74.4 275.429 73.4667 277.029 72.4C278.362 71.4667 279.696 71 281.029 71C281.962 71 282.429 71.4 282.429 72.2C282.429 72.8667 281.629 75.7333 280.029 80.8C278.429 85.8667 276.096 93.1333 273.029 102.6C273.829 101.533 275.496 99.6 278.029 96.8C280.562 93.8667 283.896 90.1333 288.029 85.6L300.429 72C301.362 71.0667 302.429 70.6 303.629 70.6C306.696 70.6 308.229 72.1333 308.229 75.2C308.229 75.8667 307.962 76.6667 307.429 77.6C299.962 89.8667 296.229 99.6 296.229 106.8C296.229 111.867 298.629 114.4 303.429 114.4C306.896 114.4 310.896 112.467 315.429 108.6C317.296 107.133 318.896 105.533 320.229 103.8C321.696 101.933 323.229 99.9333 324.829 97.8C327.629 93.9333 329.229 92 329.629 92C330.029 92 330.229 92.4 330.229 93.2C330.229 94 329.829 95.1333 329.029 96.6C319.962 111.667 310.562 119.2 300.829 119.2ZM297.293 199.2C290.76 199.2 285.426 197.333 281.293 193.6C276.893 189.733 274.693 184.733 274.693 178.6C274.693 164.467 284.893 150.8 305.293 137.6C322.626 126.533 339.226 119.733 355.093 117.2C356.026 113.067 357.026 107.933 358.093 101.8C359.16 95.6667 360.293 88.5333 361.493 80.4C360.693 82.2667 359.56 84.5333 358.093 87.2C356.626 89.8667 354.893 92.6667 352.893 95.6C350.626 99.0667 348.693 101.933 347.093 104.2C345.493 106.333 343.893 108.2 342.293 109.8C338.96 113.4 335.693 115.2 332.493 115.2C328.226 115.2 326.093 111.467 326.093 104C326.093 99.8667 327.426 94.7333 330.093 88.6C333.026 81.6667 336.426 78.2 340.293 78.2C342.16 78.2 343.093 78.7333 343.093 79.8C343.093 79.9333 342.76 80.6 342.093 81.8C341.426 83 340.093 85.3333 338.093 88.8C334.76 94.6667 333.093 99.2667 333.093 102.6C333.093 106.867 334.293 109 336.693 109C340.96 109 349.96 95.6 363.693 68.8C363.96 66.8 365.626 65.8 368.693 65.8C371.093 65.8 372.293 66.3333 372.293 67.4C372.293 68.3333 372.093 70.2 371.693 73C371.293 75.8 370.626 79.6 369.693 84.4C368.493 91.0667 367.426 96.8 366.493 101.6C365.56 106.267 364.426 111.4 363.093 117H363.893C370.96 117 374.493 118.8 374.493 122.4C374.493 123.2 374.293 123.6 373.893 123.6C373.76 123.6 373.16 123.267 372.093 122.6C371.56 122.333 370.826 121.933 369.893 121.4C368.96 121 367.76 120.8 366.293 120.8C365.626 120.8 364.96 120.8 364.293 120.8C363.76 120.8 363.16 120.867 362.493 121C357.56 140.733 351.226 156.267 343.493 167.6C329.093 188.667 313.693 199.2 297.293 199.2ZM298.293 196.4C306.56 196.4 314.626 192.933 322.493 186C328.76 180.667 334.426 173.667 339.493 165C346.56 152.867 351.693 138.133 354.893 120.8C346.226 122.133 335.76 125.933 323.493 132.2C311.093 138.467 301.826 144.6 295.693 150.6C285.56 160.2 280.493 169.733 280.493 179.2C280.493 184.4 282.093 188.533 285.293 191.6C288.76 194.8 293.093 196.4 298.293 196.4ZM381.976 118.6C377.842 118.6 375.776 116.333 375.776 111.8C375.776 105 379.109 96.6667 385.776 86.8C392.309 77.0667 398.776 71.0667 405.176 68.8C406.376 68.4 407.509 68.0667 408.576 67.8C409.642 67.5333 410.709 67.4 411.776 67.4C416.576 67.4 420.042 69.0667 422.176 72.4C422.576 72.9333 422.776 73.4 422.776 73.8C422.776 74.0667 422.309 74.2667 421.376 74.4C420.576 74.5333 419.909 75 419.376 75.8C416.176 81 414.576 88.8 414.576 99.2C414.576 108.8 416.642 113.6 420.776 113.6C423.576 113.6 427.642 110.667 432.976 104.8C433.776 104 434.909 102.6 436.376 100.6C437.842 98.6 439.309 96.6 440.776 94.6C442.242 92.4667 443.242 91.0667 443.776 90.4C444.176 90 444.509 89.8 444.776 89.8C445.309 89.8 445.576 90.2667 445.576 91.2C445.576 91.8667 445.176 92.8 444.376 94C441.442 98.6667 438.109 103.2 434.376 107.6C430.642 112 427.442 114.867 424.776 116.2C422.376 117.4 419.976 118 417.576 118C409.442 118 405.376 112.267 405.376 100.8C405.376 99.8667 405.376 98.9333 405.376 98C405.509 96.9333 405.642 95.8667 405.776 94.8C396.709 110.667 388.776 118.6 381.976 118.6ZM385.376 112.6C386.842 112.6 388.576 111.8 390.576 110.2C392.576 108.467 394.642 106.2 396.776 103.4C399.976 99.1333 402.976 94.6 405.776 89.8C408.576 85 411.042 79.8 413.176 74.2C412.776 74.0667 412.176 74 411.376 74C405.909 74 400.376 77.4 394.776 84.2C386.642 93.9333 382.576 102 382.576 108.4C382.576 111.2 383.509 112.6 385.376 112.6ZM564.471 133C556.738 133 546.071 125.467 532.471 110.4C527.938 105.2 523.538 99.8667 519.271 94.4C515.004 88.8 511.004 83.0667 507.271 77.2C505.804 77.0667 504.404 76.8667 503.071 76.6C501.738 76.3333 500.471 76.0667 499.271 75.8C485.671 101.533 478.871 118.467 478.871 126.6C478.871 127.267 478.938 127.8 479.071 128.2V129.6C479.071 131.467 478.404 132.4 477.071 132.4C474.938 132.4 473.871 130.6 473.871 127C473.871 117.533 480.071 99.7333 492.471 73.6C486.071 70.5333 482.871 66.4 482.871 61.2C482.871 58.1333 483.938 55.4667 486.071 53.2C488.338 50.8 490.871 49.6 493.671 49.6C496.871 49.6 499.671 51.2 502.071 54.4C503.538 51.7333 505.338 48.4667 507.471 44.6C509.738 40.6 512.338 36.1333 515.271 31.2C517.538 28.4 521.004 27 525.671 27C527.538 27 528.471 27.4667 528.471 28.4C528.471 28.6667 528.271 29.1333 527.871 29.8C524.004 35.1333 520.271 40.5333 516.671 46C513.204 51.3333 509.938 56.8 506.871 62.4L513.471 74.2C519.338 73.8 525.138 72.8667 530.871 71.4C536.738 69.9333 542.138 68.1333 547.071 66C553.738 63.0667 559.071 59.7333 563.071 56C567.204 52.1333 570.071 48 571.671 43.6C572.071 42.5333 572.338 41.4667 572.471 40.4C572.604 39.3333 572.671 38.3333 572.671 37.4C572.671 28.4667 566.804 22.9333 555.071 20.8C546.938 19.2 537.738 18.4 527.471 18.4C516.404 18.4 505.404 19.4 494.471 21.4C483.671 23.2667 472.938 26.1333 462.271 30C461.738 30.1333 461.271 30.2667 460.871 30.4C460.604 30.4 460.338 30.4 460.071 30.4C459.138 30.4 458.671 30 458.671 29.2C458.671 27.6 459.804 25.8 462.071 23.8C463.938 21.9333 465.804 20.7333 467.671 20.2C482.338 15.4 499.404 13 518.871 13C532.738 13 546.071 14.4 558.871 17.2C573.938 20.6667 581.471 27.8667 581.471 38.8C581.471 42 580.538 45.6 578.671 49.6C576.538 54 573.471 57.9333 569.471 61.4C565.604 64.7333 561.004 67.6 555.671 70C546.871 74.1333 536.738 76.6 525.271 77.4C523.938 77.5333 522.338 77.6667 520.471 77.8C518.604 77.8 516.938 77.7333 515.471 77.6C518.138 81.8667 521.404 86.4667 525.271 91.4C529.138 96.3333 533.538 101.533 538.471 107C551.004 120.867 560.204 127.8 566.071 127.8C569.271 127.8 570.871 126.067 570.871 122.6C570.871 122.067 570.804 121.467 570.671 120.8C570.671 120.267 570.604 119.667 570.471 119C570.071 117.533 569.871 116.533 569.871 116C569.871 114.8 570.404 114.2 571.471 114.2C573.738 114.2 574.871 116.867 574.871 122.2C574.871 125 573.871 127.533 571.871 129.8C569.871 131.933 567.404 133 564.471 133ZM493.671 71L498.471 61.4C497.138 58.8667 495.538 57.6 493.671 57.6C490.738 57.6 489.271 59.5333 489.271 63.4C489.271 66.4667 490.738 69 493.671 71ZM505.471 74.4L502.671 69.6L500.471 73.6C501.138 73.7333 501.871 73.8667 502.671 74C503.604 74.1333 504.538 74.2667 505.471 74.4ZM574.554 118.6C570.421 118.6 568.354 116.333 568.354 111.8C568.354 105 571.687 96.6667 578.354 86.8C584.887 77.0667 591.354 71.0667 597.754 68.8C598.954 68.4 600.087 68.0667 601.154 67.8C602.221 67.5333 603.287 67.4 604.354 67.4C609.154 67.4 612.621 69.0667 614.754 72.4C615.154 72.9333 615.354 73.4 615.354 73.8C615.354 74.0667 614.887 74.2667 613.954 74.4C613.154 74.5333 612.487 75 611.954 75.8C608.754 81 607.154 88.8 607.154 99.2C607.154 108.8 609.221 113.6 613.354 113.6C616.154 113.6 620.221 110.667 625.554 104.8C626.354 104 627.487 102.6 628.954 100.6C630.421 98.6 631.887 96.6 633.354 94.6C634.821 92.4667 635.821 91.0667 636.354 90.4C636.754 90 637.087 89.8 637.354 89.8C637.887 89.8 638.154 90.2667 638.154 91.2C638.154 91.8667 637.754 92.8 636.954 94C634.021 98.6667 630.687 103.2 626.954 107.6C623.221 112 620.021 114.867 617.354 116.2C614.954 117.4 612.554 118 610.154 118C602.021 118 597.954 112.267 597.954 100.8C597.954 99.8667 597.954 98.9333 597.954 98C598.087 96.9333 598.221 95.8667 598.354 94.8C589.287 110.667 581.354 118.6 574.554 118.6ZM577.954 112.6C579.421 112.6 581.154 111.8 583.154 110.2C585.154 108.467 587.221 106.2 589.354 103.4C592.554 99.1333 595.554 94.6 598.354 89.8C601.154 85 603.621 79.8 605.754 74.2C605.354 74.0667 604.754 74 603.954 74C598.487 74 592.954 77.4 587.354 84.2C579.221 93.9333 575.154 102 575.154 108.4C575.154 111.2 576.087 112.6 577.954 112.6ZM632.757 118.6C628.624 118.6 626.557 116.333 626.557 111.8C626.557 105 629.89 96.6667 636.557 86.8C643.09 77.0667 649.557 71.0667 655.957 68.8C657.157 68.4 658.29 68.0667 659.357 67.8C660.424 67.5333 661.49 67.4 662.557 67.4C667.357 67.4 670.824 69.0667 672.957 72.4C673.357 72.9333 673.557 73.4 673.557 73.8C673.557 74.0667 673.09 74.2667 672.157 74.4C671.357 74.5333 670.69 75 670.157 75.8C666.957 81 665.357 88.8 665.357 99.2C665.357 108.8 667.424 113.6 671.557 113.6C674.357 113.6 678.424 110.667 683.757 104.8C684.557 104 685.69 102.6 687.157 100.6C688.624 98.6 690.09 96.6 691.557 94.6C693.024 92.4667 694.024 91.0667 694.557 90.4C694.957 90 695.29 89.8 695.557 89.8C696.09 89.8 696.357 90.2667 696.357 91.2C696.357 91.8667 695.957 92.8 695.157 94C692.224 98.6667 688.89 103.2 685.157 107.6C681.424 112 678.224 114.867 675.557 116.2C673.157 117.4 670.757 118 668.357 118C660.224 118 656.157 112.267 656.157 100.8C656.157 99.8667 656.157 98.9333 656.157 98C656.29 96.9333 656.424 95.8667 656.557 94.8C647.49 110.667 639.557 118.6 632.757 118.6ZM636.157 112.6C637.624 112.6 639.357 111.8 641.357 110.2C643.357 108.467 645.424 106.2 647.557 103.4C650.757 99.1333 653.757 94.6 656.557 89.8C659.357 85 661.824 79.8 663.957 74.2C663.557 74.0667 662.957 74 662.157 74C656.69 74 651.157 77.4 645.557 84.2C637.424 93.9333 633.357 102 633.357 108.4C633.357 111.2 634.29 112.6 636.157 112.6ZM686.16 118.8C685.093 118.8 684.56 117.6 684.56 115.2C684.56 114.4 684.627 113.867 684.76 113.6C686.227 110 687.76 105.667 689.36 100.6C690.96 95.5333 692.56 89.7333 694.16 83.2C694.293 82.2667 694.427 81.3333 694.56 80.4C694.827 79.4667 695.227 77.7333 695.76 75.2C695.893 74.9333 696.16 74.5333 696.56 74C696.96 73.4667 697.56 72.9333 698.36 72.4C699.827 71.4667 701.16 71 702.36 71C703.293 71 703.76 71.4 703.76 72.2C703.76 72.8667 702.96 75.7333 701.36 80.8C699.76 85.8667 697.427 93.1333 694.36 102.6L716.36 73.2C718.227 70.8 720.293 69.6 722.56 69.6C724.693 69.6 725.76 70.8 725.76 73.2C725.76 74.1333 725.627 75.4667 725.36 77.2C725.227 78.8 724.893 80.8667 724.36 83.4C723.827 85.9333 723.293 89.1333 722.76 93C722.36 96.7333 721.827 101.067 721.16 106C723.027 103.333 725.36 100.067 728.16 96.2C731.093 92.2 734.56 87.6667 738.56 82.6C740.56 80.0667 742.693 78.8 744.96 78.8C746.96 78.8 747.96 80.0667 747.96 82.6C747.96 83.6667 747.827 85 747.56 86.6C747.427 88.0667 747.227 89.8667 746.96 92C746.693 94.1333 746.427 96 746.16 97.6C746.027 99.2 745.96 100.533 745.96 101.6C745.96 108.533 747.76 112 751.36 112C756.56 112 763.027 106.4 770.76 95.2C771.693 93.8667 772.36 93.2 772.76 93.2C773.427 93.2 773.76 93.8 773.76 95C773.76 95.2667 773.627 95.6 773.36 96C773.227 96.2667 773.227 96.3333 773.36 96.2C771.76 98.3333 770.093 100.467 768.36 102.6C766.627 104.733 764.56 106.933 762.16 109.2C756.693 114.533 751.893 117.2 747.76 117.2C741.493 117.2 738.36 110.267 738.36 96.4C738.36 95.3333 738.36 94.2 738.36 93C738.36 91.8 738.427 90.5333 738.56 89.2C736.16 91.3333 733.493 94.4667 730.56 98.6C727.76 102.6 725.027 107.133 722.36 112.2C720.36 115.933 718.16 117.8 715.76 117.8C714.96 117.8 714.36 117.533 713.96 117C713.56 115.533 713.36 113.667 713.36 111.4C713.36 109.667 713.56 107 713.96 103.4C714.36 99.6667 715.027 95.2 715.96 90C716.36 87.6 716.693 85.5333 716.96 83.8C717.227 82.0667 717.36 80.8667 717.36 80.2C717.36 79.1333 717.16 78.6 716.76 78.6C715.693 79.5333 714.093 81.2667 711.96 83.8C709.96 86.2 707.893 88.8 705.76 91.6C703.093 95.2 700.227 99.1333 697.16 103.4C694.227 107.533 691.227 112.067 688.16 117C687.36 118.2 686.693 118.8 686.16 118.8Z" fill="white"/>
</svg>
