<svg width="774" height="200" viewBox="0 0 774 200" fill="none" xmlns="http://www.w3.org/2000/svg">
<path d="M25.2617 129.2C18.0617 129.2 12.2617 127.6 7.86172 124.4C2.66172 120.8 0.0617188 115.6 0.0617188 108.8C0.0617188 101.067 3.32839 93.9333 9.86172 87.4C15.5951 81.6667 22.5284 77.6667 30.6617 75.4C37.3284 73.5333 45.9951 72.1333 56.6617 71.2C67.3284 70.2667 79.9284 69.8667 94.4617 70C98.1951 65.6 101.262 62 103.662 59.2C106.062 56.2667 108.128 53.7333 109.862 51.6C111.595 49.4667 113.262 47.4 114.862 45.4C116.595 43.2667 118.528 40.7333 120.662 37.8L131.862 22.8C132.528 22.1333 133.128 21.8 133.662 21.8C135.395 21.8 136.262 22.6 136.262 24.2C136.262 24.3333 136.128 24.8 135.862 25.6L123.462 42.2C122.662 43.2667 121.328 45 119.462 47.4C117.595 49.8 115.595 52.4667 113.462 55.4C111.328 58.3333 109.195 61.1333 107.062 63.8C105.062 66.4667 103.462 68.6 102.262 70.2C105.595 70.3333 108.862 70.6667 112.062 71.2C115.395 71.7333 118.662 72.3333 121.862 73C125.595 56.2 130.395 40.3333 136.262 25.4C137.195 23.1333 138.262 20.6667 139.462 18C140.662 15.2 142.262 11.8 144.262 7.8C144.662 6.86666 146.462 5.46666 149.662 3.59999C152.728 1.73333 154.795 0.799995 155.862 0.799995C157.062 0.799995 157.662 1.4 157.662 2.6C157.662 3 157.328 3.73333 156.662 4.79999C145.195 23.8667 135.795 47.2 128.462 74.8C134.462 76.5333 137.462 78.2667 137.462 80C137.462 81.3333 136.728 82 135.262 82C135.128 82 134.662 81.8667 133.862 81.6C133.062 81.2 132.328 80.9333 131.662 80.8C130.595 80.2667 129.662 79.9333 128.862 79.8C128.062 79.5333 127.528 79.3333 127.262 79.2C125.395 87.2 123.928 94.4 122.862 100.8C121.928 107.067 121.462 112.533 121.462 117.2C121.462 121.733 122.128 124 123.462 124C124.662 124 126.262 123.2 128.262 121.6C130.395 119.867 131.662 119 132.062 119C133.262 119 133.862 119.733 133.862 121.2C133.862 122.667 132.595 124.133 130.062 125.6C127.528 127.2 125.328 128 123.462 128C118.395 128 115.862 123.8 115.862 115.4C115.862 111.133 116.262 105.867 117.062 99.6C117.862 93.3333 119.128 86.1333 120.862 78C117.528 77.4667 113.862 77.1333 109.862 77C105.995 76.7333 101.795 76.5333 97.2617 76.4C95.2617 78.9333 92.9951 81.6667 90.4617 84.6C87.9284 87.5333 84.9284 90.8 81.4617 94.4C77.0617 99.2 73.3951 103.067 70.4617 106C67.5284 108.933 64.9951 111.333 62.8617 113.2C60.8617 114.933 58.8617 116.533 56.8617 118C46.8617 125.467 36.3284 129.2 25.2617 129.2ZM22.8617 121.4C32.8617 121.4 42.7951 118.067 52.6617 111.4C55.7284 109.267 59.2617 106.4 63.2617 102.8C67.3951 99.0667 71.7951 94.7333 76.4617 89.8C78.1951 87.9333 80.0617 86 82.0617 84C84.0617 81.8667 86.3284 79.3333 88.8617 76.4H83.2617C71.7951 76.4 61.7284 76.8 53.0617 77.6C44.3951 78.2667 37.1284 79.4 31.2617 81C27.9284 81.9333 24.7284 83.2667 21.6617 85C18.7284 86.7333 16.1284 88.6667 13.8617 90.8C8.26172 96.1333 5.46172 102 5.46172 108.4C5.46172 112.533 7.32839 115.867 11.0617 118.4C14.2617 120.4 18.1951 121.4 22.8617 121.4ZM186.462 119.2C178.862 119.2 175.062 114.4 175.062 104.8C175.062 100.533 175.728 96.4 177.062 92.4C178.528 88.4 180.195 84.7333 182.062 81.4C177.395 85.5333 172.462 90.6667 167.262 96.8C162.195 102.8 157.195 109.533 152.262 117C151.462 118.2 150.862 118.8 150.462 118.8C149.262 118.8 148.662 117.6 148.662 115.2C148.662 114.667 148.795 114.133 149.062 113.6C150.528 110 151.995 105.867 153.462 101.2C154.928 96.4 156.395 90.8 157.862 84.4C158.128 83.0667 158.395 81.7333 158.662 80.4C158.928 79.0667 159.328 77.3333 159.862 75.2C160.128 74.4 161.062 73.4667 162.662 72.4C163.995 71.4667 165.328 71 166.662 71C167.595 71 168.062 71.4 168.062 72.2C168.062 72.8667 167.262 75.7333 165.662 80.8C164.062 85.8667 161.728 93.1333 158.662 102.6C159.462 101.533 161.128 99.6 163.662 96.8C166.195 93.8667 169.528 90.1333 173.662 85.6L186.062 72C186.995 71.0667 188.062 70.6 189.262 70.6C192.328 70.6 193.862 72.1333 193.862 75.2C193.862 75.8667 193.595 76.6667 193.062 77.6C185.595 89.8667 181.862 99.6 181.862 106.8C181.862 111.867 184.262 114.4 189.062 114.4C192.528 114.4 196.528 112.467 201.062 108.6C202.928 107.133 204.528 105.533 205.862 103.8C207.328 101.933 208.862 99.9333 210.462 97.8C213.262 93.9333 214.862 92 215.262 92C215.662 92 215.862 92.4 215.862 93.2C215.862 94 215.462 95.1333 214.662 96.6C205.595 111.667 196.195 119.2 186.462 119.2ZM212.726 118.6C208.592 118.6 206.526 116.333 206.526 111.8C206.526 105 209.859 96.6667 216.526 86.8C223.059 77.0667 229.526 71.0667 235.926 68.8C237.126 68.4 238.259 68.0667 239.326 67.8C240.392 67.5333 241.459 67.4 242.526 67.4C247.326 67.4 250.792 69.0667 252.926 72.4C253.326 72.9333 253.526 73.4 253.526 73.8C253.526 74.0667 253.059 74.2667 252.126 74.4C251.326 74.5333 250.659 75 250.126 75.8C246.926 81 245.326 88.8 245.326 99.2C245.326 108.8 247.392 113.6 251.526 113.6C254.326 113.6 258.392 110.667 263.726 104.8C264.526 104 265.659 102.6 267.126 100.6C268.592 98.6 270.059 96.6 271.526 94.6C272.992 92.4667 273.992 91.0667 274.526 90.4C274.926 90 275.259 89.8 275.526 89.8C276.059 89.8 276.326 90.2667 276.326 91.2C276.326 91.8667 275.926 92.8 275.126 94C272.192 98.6667 268.859 103.2 265.126 107.6C261.392 112 258.192 114.867 255.526 116.2C253.126 117.4 250.726 118 248.326 118C240.192 118 236.126 112.267 236.126 100.8C236.126 99.8667 236.126 98.9333 236.126 98C236.259 96.9333 236.392 95.8667 236.526 94.8C227.459 110.667 219.526 118.6 212.726 118.6ZM216.126 112.6C217.592 112.6 219.326 111.8 221.326 110.2C223.326 108.467 225.392 106.2 227.526 103.4C230.726 99.1333 233.726 94.6 236.526 89.8C239.326 85 241.792 79.8 243.926 74.2C243.526 74.0667 242.926 74 242.126 74C236.659 74 231.126 77.4 225.526 84.2C217.392 93.9333 213.326 102 213.326 108.4C213.326 111.2 214.259 112.6 216.126 112.6ZM300.329 119.2C292.729 119.2 288.929 114.4 288.929 104.8C288.929 100.533 289.596 96.4 290.929 92.4C292.396 88.4 294.062 84.7333 295.929 81.4C291.262 85.5333 286.329 90.6667 281.129 96.8C276.062 102.8 271.062 109.533 266.129 117C265.329 118.2 264.729 118.8 264.329 118.8C263.129 118.8 262.529 117.6 262.529 115.2C262.529 114.667 262.662 114.133 262.929 113.6C264.396 110 265.862 105.867 267.329 101.2C268.796 96.4 270.262 90.8 271.729 84.4C271.996 83.0667 272.262 81.7333 272.529 80.4C272.796 79.0667 273.196 77.3333 273.729 75.2C273.996 74.4 274.929 73.4667 276.529 72.4C277.862 71.4667 279.196 71 280.529 71C281.462 71 281.929 71.4 281.929 72.2C281.929 72.8667 281.129 75.7333 279.529 80.8C277.929 85.8667 275.596 93.1333 272.529 102.6C273.329 101.533 274.996 99.6 277.529 96.8C280.062 93.8667 283.396 90.1333 287.529 85.6L299.929 72C300.862 71.0667 301.929 70.6 303.129 70.6C306.196 70.6 307.729 72.1333 307.729 75.2C307.729 75.8667 307.462 76.6667 306.929 77.6C299.462 89.8667 295.729 99.6 295.729 106.8C295.729 111.867 298.129 114.4 302.929 114.4C306.396 114.4 310.396 112.467 314.929 108.6C316.796 107.133 318.396 105.533 319.729 103.8C321.196 101.933 322.729 99.9333 324.329 97.8C327.129 93.9333 328.729 92 329.129 92C329.529 92 329.729 92.4 329.729 93.2C329.729 94 329.329 95.1333 328.529 96.6C319.462 111.667 310.062 119.2 300.329 119.2ZM296.793 199.2C290.26 199.2 284.926 197.333 280.793 193.6C276.393 189.733 274.193 184.733 274.193 178.6C274.193 164.467 284.393 150.8 304.793 137.6C322.126 126.533 338.726 119.733 354.593 117.2C355.526 113.067 356.526 107.933 357.593 101.8C358.66 95.6667 359.793 88.5333 360.993 80.4C360.193 82.2667 359.06 84.5333 357.593 87.2C356.126 89.8667 354.393 92.6667 352.393 95.6C350.126 99.0667 348.193 101.933 346.593 104.2C344.993 106.333 343.393 108.2 341.793 109.8C338.46 113.4 335.193 115.2 331.993 115.2C327.726 115.2 325.593 111.467 325.593 104C325.593 99.8667 326.926 94.7333 329.593 88.6C332.526 81.6667 335.926 78.2 339.793 78.2C341.66 78.2 342.593 78.7333 342.593 79.8C342.593 79.9333 342.26 80.6 341.593 81.8C340.926 83 339.593 85.3333 337.593 88.8C334.26 94.6667 332.593 99.2667 332.593 102.6C332.593 106.867 333.793 109 336.193 109C340.46 109 349.46 95.6 363.193 68.8C363.46 66.8 365.126 65.8 368.193 65.8C370.593 65.8 371.793 66.3333 371.793 67.4C371.793 68.3333 371.593 70.2 371.193 73C370.793 75.8 370.126 79.6 369.193 84.4C367.993 91.0667 366.926 96.8 365.993 101.6C365.06 106.267 363.926 111.4 362.593 117H363.393C370.46 117 373.993 118.8 373.993 122.4C373.993 123.2 373.793 123.6 373.393 123.6C373.26 123.6 372.66 123.267 371.593 122.6C371.06 122.333 370.326 121.933 369.393 121.4C368.46 121 367.26 120.8 365.793 120.8C365.126 120.8 364.46 120.8 363.793 120.8C363.26 120.8 362.66 120.867 361.993 121C357.06 140.733 350.726 156.267 342.993 167.6C328.593 188.667 313.193 199.2 296.793 199.2ZM297.793 196.4C306.06 196.4 314.126 192.933 321.993 186C328.26 180.667 333.926 173.667 338.993 165C346.06 152.867 351.193 138.133 354.393 120.8C345.726 122.133 335.26 125.933 322.993 132.2C310.593 138.467 301.326 144.6 295.193 150.6C285.06 160.2 279.993 169.733 279.993 179.2C279.993 184.4 281.593 188.533 284.793 191.6C288.26 194.8 292.593 196.4 297.793 196.4ZM381.476 118.6C377.342 118.6 375.276 116.333 375.276 111.8C375.276 105 378.609 96.6667 385.276 86.8C391.809 77.0667 398.276 71.0667 404.676 68.8C405.876 68.4 407.009 68.0667 408.076 67.8C409.142 67.5333 410.209 67.4 411.276 67.4C416.076 67.4 419.542 69.0667 421.676 72.4C422.076 72.9333 422.276 73.4 422.276 73.8C422.276 74.0667 421.809 74.2667 420.876 74.4C420.076 74.5333 419.409 75 418.876 75.8C415.676 81 414.076 88.8 414.076 99.2C414.076 108.8 416.142 113.6 420.276 113.6C423.076 113.6 427.142 110.667 432.476 104.8C433.276 104 434.409 102.6 435.876 100.6C437.342 98.6 438.809 96.6 440.276 94.6C441.742 92.4667 442.742 91.0667 443.276 90.4C443.676 90 444.009 89.8 444.276 89.8C444.809 89.8 445.076 90.2667 445.076 91.2C445.076 91.8667 444.676 92.8 443.876 94C440.942 98.6667 437.609 103.2 433.876 107.6C430.142 112 426.942 114.867 424.276 116.2C421.876 117.4 419.476 118 417.076 118C408.942 118 404.876 112.267 404.876 100.8C404.876 99.8667 404.876 98.9333 404.876 98C405.009 96.9333 405.142 95.8667 405.276 94.8C396.209 110.667 388.276 118.6 381.476 118.6ZM384.876 112.6C386.342 112.6 388.076 111.8 390.076 110.2C392.076 108.467 394.142 106.2 396.276 103.4C399.476 99.1333 402.476 94.6 405.276 89.8C408.076 85 410.542 79.8 412.676 74.2C412.276 74.0667 411.676 74 410.876 74C405.409 74 399.876 77.4 394.276 84.2C386.142 93.9333 382.076 102 382.076 108.4C382.076 111.2 383.009 112.6 384.876 112.6ZM563.971 133C556.238 133 545.571 125.467 531.971 110.4C527.438 105.2 523.038 99.8667 518.771 94.4C514.504 88.8 510.504 83.0667 506.771 77.2C505.304 77.0667 503.904 76.8667 502.571 76.6C501.238 76.3333 499.971 76.0667 498.771 75.8C485.171 101.533 478.371 118.467 478.371 126.6C478.371 127.267 478.438 127.8 478.571 128.2V129.6C478.571 131.467 477.904 132.4 476.571 132.4C474.438 132.4 473.371 130.6 473.371 127C473.371 117.533 479.571 99.7333 491.971 73.6C485.571 70.5333 482.371 66.4 482.371 61.2C482.371 58.1333 483.438 55.4667 485.571 53.2C487.838 50.8 490.371 49.6 493.171 49.6C496.371 49.6 499.171 51.2 501.571 54.4C503.038 51.7333 504.838 48.4667 506.971 44.6C509.238 40.6 511.838 36.1333 514.771 31.2C517.038 28.4 520.504 27 525.171 27C527.038 27 527.971 27.4667 527.971 28.4C527.971 28.6667 527.771 29.1333 527.371 29.8C523.504 35.1333 519.771 40.5333 516.171 46C512.704 51.3333 509.438 56.8 506.371 62.4L512.971 74.2C518.838 73.8 524.638 72.8667 530.371 71.4C536.238 69.9333 541.638 68.1333 546.571 66C553.238 63.0667 558.571 59.7333 562.571 56C566.704 52.1333 569.571 48 571.171 43.6C571.571 42.5333 571.838 41.4667 571.971 40.4C572.104 39.3333 572.171 38.3333 572.171 37.4C572.171 28.4667 566.304 22.9333 554.571 20.8C546.438 19.2 537.238 18.4 526.971 18.4C515.904 18.4 504.904 19.4 493.971 21.4C483.171 23.2667 472.438 26.1333 461.771 30C461.238 30.1333 460.771 30.2667 460.371 30.4C460.104 30.4 459.838 30.4 459.571 30.4C458.638 30.4 458.171 30 458.171 29.2C458.171 27.6 459.304 25.8 461.571 23.8C463.438 21.9333 465.304 20.7333 467.171 20.2C481.838 15.4 498.904 13 518.371 13C532.238 13 545.571 14.4 558.371 17.2C573.438 20.6667 580.971 27.8667 580.971 38.8C580.971 42 580.038 45.6 578.171 49.6C576.038 54 572.971 57.9333 568.971 61.4C565.104 64.7333 560.504 67.6 555.171 70C546.371 74.1333 536.238 76.6 524.771 77.4C523.438 77.5333 521.838 77.6667 519.971 77.8C518.104 77.8 516.438 77.7333 514.971 77.6C517.638 81.8667 520.904 86.4667 524.771 91.4C528.638 96.3333 533.038 101.533 537.971 107C550.504 120.867 559.704 127.8 565.571 127.8C568.771 127.8 570.371 126.067 570.371 122.6C570.371 122.067 570.304 121.467 570.171 120.8C570.171 120.267 570.104 119.667 569.971 119C569.571 117.533 569.371 116.533 569.371 116C569.371 114.8 569.904 114.2 570.971 114.2C573.238 114.2 574.371 116.867 574.371 122.2C574.371 125 573.371 127.533 571.371 129.8C569.371 131.933 566.904 133 563.971 133ZM493.171 71L497.971 61.4C496.638 58.8667 495.038 57.6 493.171 57.6C490.238 57.6 488.771 59.5333 488.771 63.4C488.771 66.4667 490.238 69 493.171 71ZM504.971 74.4L502.171 69.6L499.971 73.6C500.638 73.7333 501.371 73.8667 502.171 74C503.104 74.1333 504.038 74.2667 504.971 74.4ZM574.054 118.6C569.921 118.6 567.854 116.333 567.854 111.8C567.854 105 571.187 96.6667 577.854 86.8C584.387 77.0667 590.854 71.0667 597.254 68.8C598.454 68.4 599.587 68.0667 600.654 67.8C601.721 67.5333 602.787 67.4 603.854 67.4C608.654 67.4 612.121 69.0667 614.254 72.4C614.654 72.9333 614.854 73.4 614.854 73.8C614.854 74.0667 614.387 74.2667 613.454 74.4C612.654 74.5333 611.987 75 611.454 75.8C608.254 81 606.654 88.8 606.654 99.2C606.654 108.8 608.721 113.6 612.854 113.6C615.654 113.6 619.721 110.667 625.054 104.8C625.854 104 626.987 102.6 628.454 100.6C629.921 98.6 631.387 96.6 632.854 94.6C634.321 92.4667 635.321 91.0667 635.854 90.4C636.254 90 636.587 89.8 636.854 89.8C637.387 89.8 637.654 90.2667 637.654 91.2C637.654 91.8667 637.254 92.8 636.454 94C633.521 98.6667 630.187 103.2 626.454 107.6C622.721 112 619.521 114.867 616.854 116.2C614.454 117.4 612.054 118 609.654 118C601.521 118 597.454 112.267 597.454 100.8C597.454 99.8667 597.454 98.9333 597.454 98C597.587 96.9333 597.721 95.8667 597.854 94.8C588.787 110.667 580.854 118.6 574.054 118.6ZM577.454 112.6C578.921 112.6 580.654 111.8 582.654 110.2C584.654 108.467 586.721 106.2 588.854 103.4C592.054 99.1333 595.054 94.6 597.854 89.8C600.654 85 603.121 79.8 605.254 74.2C604.854 74.0667 604.254 74 603.454 74C597.987 74 592.454 77.4 586.854 84.2C578.721 93.9333 574.654 102 574.654 108.4C574.654 111.2 575.587 112.6 577.454 112.6ZM632.257 118.6C628.124 118.6 626.057 116.333 626.057 111.8C626.057 105 629.39 96.6667 636.057 86.8C642.59 77.0667 649.057 71.0667 655.457 68.8C656.657 68.4 657.79 68.0667 658.857 67.8C659.924 67.5333 660.99 67.4 662.057 67.4C666.857 67.4 670.324 69.0667 672.457 72.4C672.857 72.9333 673.057 73.4 673.057 73.8C673.057 74.0667 672.59 74.2667 671.657 74.4C670.857 74.5333 670.19 75 669.657 75.8C666.457 81 664.857 88.8 664.857 99.2C664.857 108.8 666.924 113.6 671.057 113.6C673.857 113.6 677.924 110.667 683.257 104.8C684.057 104 685.19 102.6 686.657 100.6C688.124 98.6 689.59 96.6 691.057 94.6C692.524 92.4667 693.524 91.0667 694.057 90.4C694.457 90 694.79 89.8 695.057 89.8C695.59 89.8 695.857 90.2667 695.857 91.2C695.857 91.8667 695.457 92.8 694.657 94C691.724 98.6667 688.39 103.2 684.657 107.6C680.924 112 677.724 114.867 675.057 116.2C672.657 117.4 670.257 118 667.857 118C659.724 118 655.657 112.267 655.657 100.8C655.657 99.8667 655.657 98.9333 655.657 98C655.79 96.9333 655.924 95.8667 656.057 94.8C646.99 110.667 639.057 118.6 632.257 118.6ZM635.657 112.6C637.124 112.6 638.857 111.8 640.857 110.2C642.857 108.467 644.924 106.2 647.057 103.4C650.257 99.1333 653.257 94.6 656.057 89.8C658.857 85 661.324 79.8 663.457 74.2C663.057 74.0667 662.457 74 661.657 74C656.19 74 650.657 77.4 645.057 84.2C636.924 93.9333 632.857 102 632.857 108.4C632.857 111.2 633.79 112.6 635.657 112.6ZM685.66 118.8C684.593 118.8 684.06 117.6 684.06 115.2C684.06 114.4 684.127 113.867 684.26 113.6C685.727 110 687.26 105.667 688.86 100.6C690.46 95.5333 692.06 89.7333 693.66 83.2C693.793 82.2667 693.927 81.3333 694.06 80.4C694.327 79.4667 694.727 77.7333 695.26 75.2C695.393 74.9333 695.66 74.5333 696.06 74C696.46 73.4667 697.06 72.9333 697.86 72.4C699.327 71.4667 700.66 71 701.86 71C702.793 71 703.26 71.4 703.26 72.2C703.26 72.8667 702.46 75.7333 700.86 80.8C699.26 85.8667 696.927 93.1333 693.86 102.6L715.86 73.2C717.727 70.8 719.793 69.6 722.06 69.6C724.193 69.6 725.26 70.8 725.26 73.2C725.26 74.1333 725.127 75.4667 724.86 77.2C724.727 78.8 724.393 80.8667 723.86 83.4C723.327 85.9333 722.793 89.1333 722.26 93C721.86 96.7333 721.327 101.067 720.66 106C722.527 103.333 724.86 100.067 727.66 96.2C730.593 92.2 734.06 87.6667 738.06 82.6C740.06 80.0667 742.193 78.8 744.46 78.8C746.46 78.8 747.46 80.0667 747.46 82.6C747.46 83.6667 747.327 85 747.06 86.6C746.927 88.0667 746.727 89.8667 746.46 92C746.193 94.1333 745.927 96 745.66 97.6C745.527 99.2 745.46 100.533 745.46 101.6C745.46 108.533 747.26 112 750.86 112C756.06 112 762.527 106.4 770.26 95.2C771.193 93.8667 771.86 93.2 772.26 93.2C772.927 93.2 773.26 93.8 773.26 95C773.26 95.2667 773.127 95.6 772.86 96C772.727 96.2667 772.727 96.3333 772.86 96.2C771.26 98.3333 769.593 100.467 767.86 102.6C766.127 104.733 764.06 106.933 761.66 109.2C756.193 114.533 751.393 117.2 747.26 117.2C740.993 117.2 737.86 110.267 737.86 96.4C737.86 95.3333 737.86 94.2 737.86 93C737.86 91.8 737.927 90.5333 738.06 89.2C735.66 91.3333 732.993 94.4667 730.06 98.6C727.26 102.6 724.527 107.133 721.86 112.2C719.86 115.933 717.66 117.8 715.26 117.8C714.46 117.8 713.86 117.533 713.46 117C713.06 115.533 712.86 113.667 712.86 111.4C712.86 109.667 713.06 107 713.46 103.4C713.86 99.6667 714.527 95.2 715.46 90C715.86 87.6 716.193 85.5333 716.46 83.8C716.727 82.0667 716.86 80.8667 716.86 80.2C716.86 79.1333 716.66 78.6 716.26 78.6C715.193 79.5333 713.593 81.2667 711.46 83.8C709.46 86.2 707.393 88.8 705.26 91.6C702.593 95.2 699.727 99.1333 696.66 103.4C693.727 107.533 690.727 112.067 687.66 117C686.86 118.2 686.193 118.8 685.66 118.8Z" fill="black"/>
</svg>
