<svg width="4105" height="4103" viewBox="0 0 4105 4103" fill="none" xmlns="http://www.w3.org/2000/svg">
<path d="M821.073 1485.07L803.685 1474.25L748.331 1448.72C741.105 1445.39 734.771 1445.17 729.332 1448.07C723.963 1450.81 719.08 1456.95 714.682 1466.48C712.412 1471.4 710.81 1475.89 709.877 1479.93C709.014 1483.82 708.672 1487.39 708.85 1490.65C709.099 1493.74 709.72 1496.64 710.714 1499.34L698.49 1493.7L687.415 1463.14C688.147 1459.93 689.034 1456.8 690.074 1453.73C691.185 1450.52 692.521 1447.22 694.081 1443.83C697.912 1435.53 702.878 1428.4 708.979 1422.45C714.927 1416.43 722.312 1412.75 731.135 1411.41C739.803 1410.01 750.211 1412.1 762.358 1417.71L817.943 1443.35L837.458 1449.55L821.073 1485.07ZM784.046 1565.34L766.659 1554.52L685.473 1517.07L666.419 1511.07L679.187 1483.4L695.348 1484.14L780.916 1523.61L800.431 1529.82L784.046 1565.34Z" fill="#141118"/>
<path d="M777.771 1255.72C774.849 1260.29 770.958 1263.22 766.097 1264.53C761.094 1265.75 756.097 1264.77 751.105 1261.57C746.113 1258.38 743.196 1254.3 742.352 1249.33C741.365 1244.28 742.333 1239.47 745.254 1234.91C748.176 1230.34 752.138 1227.45 757.142 1226.23C762.002 1224.92 766.929 1225.86 771.92 1229.06C776.912 1232.25 779.901 1236.38 780.887 1241.43C781.731 1246.39 780.692 1251.16 777.771 1255.72ZM892.32 1349.56L876.576 1336.46L808.548 1292.92L792.937 1317.3L768.977 1301.97L804.308 1246.77L820.053 1259.87L894.926 1307.8L913.409 1316.61L892.32 1349.56Z" fill="#141118"/>
<path d="M1007.89 1192.33C1002.35 1198.95 996.132 1204.79 989.248 1209.85C982.234 1214.8 974.551 1218.31 966.2 1220.37C957.827 1222.19 949.025 1221.89 939.794 1219.46C930.434 1216.93 920.689 1211.42 910.561 1202.94C900.823 1194.79 893.838 1186.52 889.607 1178.12C885.376 1169.72 883.313 1161.37 883.418 1153.06C883.523 1144.76 885.384 1136.6 889.001 1128.59C892.618 1120.57 897.415 1112.99 903.393 1105.85C907.849 1100.53 912.097 1096.25 916.137 1093C920.286 1089.63 924.487 1086.85 928.741 1084.67L948.803 1101.46L947.489 1106.99C944.017 1108.5 940.414 1110.56 936.679 1113.18C933.053 1115.66 929.392 1119.11 925.696 1123.53C920.805 1129.37 917.724 1135.29 916.454 1141.3C915.053 1147.19 915.701 1153.14 918.398 1159.16C921.074 1164.93 925.982 1170.8 933.124 1176.78C938.707 1181.46 943.99 1184.77 948.972 1186.74C953.825 1188.59 958.398 1189.33 962.692 1188.95C966.964 1188.33 971.087 1186.7 975.06 1184.06C979.034 1181.43 982.868 1177.9 986.564 1173.49C990.694 1168.55 993.663 1164.08 995.472 1160.07C997.259 1155.83 998.59 1151.86 999.466 1148.18L1004.67 1145.91L1024.54 1162.54C1023.06 1167.48 1020.96 1172.36 1018.26 1177.16C1015.69 1182.08 1012.24 1187.14 1007.89 1192.33Z" fill="#141118"/>
<path d="M1044.31 1047.52C1033.34 1035.07 1026.63 1023.37 1024.2 1012.42C1021.79 1001.23 1022.62 990.909 1026.69 981.447C1030.78 971.746 1037.27 962.976 1046.16 955.137C1056.32 946.178 1066.32 940.748 1076.16 938.848C1085.88 936.82 1095.18 937.764 1104.05 941.681C1112.93 945.598 1121.23 951.939 1128.95 960.703C1131.42 963.497 1133.64 966.277 1135.63 969.041C1137.61 971.805 1139.87 975.006 1142.4 978.645L1070.96 1041.64L1065.92 1035.92L1072.31 1008.61L1103.56 981.061C1099.08 975.981 1094.87 972.357 1090.92 970.189C1086.87 967.895 1082.71 967.273 1078.44 968.325C1074.07 969.249 1069.15 972.119 1063.69 976.935C1058.86 981.19 1055.71 985.431 1054.25 989.658C1052.67 993.758 1052.98 998.456 1055.16 1003.75C1057.48 1008.94 1061.99 1015.34 1068.71 1022.96C1074.53 1029.57 1079.8 1034.52 1084.51 1037.81C1089.11 1040.98 1093.44 1042.69 1097.51 1042.95C1101.7 1043.09 1105.97 1041.92 1110.33 1039.43C1114.81 1036.84 1119.72 1033.19 1125.05 1028.48C1129.5 1024.56 1133.65 1020.45 1137.52 1016.13C1141.28 1011.69 1144.62 1006.38 1147.52 1000.2L1153.01 998.748L1170.15 1018.18C1167.82 1022.71 1164.77 1027.44 1160.98 1032.36C1157.19 1037.28 1151.74 1042.88 1144.63 1049.15C1137.13 1055.76 1129.4 1061.33 1121.44 1065.87C1113.6 1070.29 1105.51 1073.02 1097.17 1074.06C1088.84 1074.85 1080.24 1073.29 1071.37 1069.38C1062.51 1065.22 1053.49 1057.94 1044.31 1047.52Z" fill="#141118"/>
<path d="M1350.99 846.248L1299.77 749.782L1290.31 734.673L1322.62 717.521L1329.83 733.821L1379.39 827.146C1382.24 832.53 1385.43 835.634 1388.93 836.457C1392.36 837.131 1397.06 835.879 1403.04 832.703C1406.48 830.877 1409.24 829.029 1411.31 827.16C1413.54 825.212 1415.5 823.119 1417.18 820.881L1422.86 820.742L1435.37 844.298C1432.55 846.942 1429.14 849.715 1425.12 852.616C1421.33 855.587 1417.04 858.343 1412.25 860.884C1404.18 865.172 1396.4 867.862 1388.93 868.954C1381.38 869.896 1374.38 868.628 1367.93 865.15C1361.4 861.522 1355.76 855.221 1350.99 846.248ZM1303.23 802.874L1289.06 776.178L1299.38 770.699L1326.73 764.803L1347.38 745.208L1370.49 732.94L1384.67 759.636L1372.85 764.47L1313.85 795.797L1303.23 802.874Z" fill="#141118"/>
<path d="M1567.14 789.497C1555.5 793.655 1544.32 795.314 1533.59 794.472C1522.96 793.413 1513.33 789.12 1504.71 781.591C1496.09 774.063 1489.01 762.564 1483.49 747.096C1479.38 735.615 1477.42 725.347 1477.61 716.291C1477.73 707.076 1479.59 698.949 1483.19 691.909C1486.95 684.812 1492.1 678.838 1498.64 673.985C1505.12 668.972 1512.74 664.9 1521.51 661.766C1530.28 658.633 1538.76 656.953 1546.95 656.724C1555.09 656.336 1562.77 657.725 1570.02 660.891C1577.42 664 1584.09 669.08 1590.03 676.13C1595.91 683.021 1600.9 692.207 1605 703.689C1610.52 719.157 1612.34 732.535 1610.43 743.823C1608.53 755.111 1603.73 764.56 1596.02 772.17C1588.41 779.563 1578.78 785.338 1567.14 789.497ZM1557.57 762.707C1567.46 759.175 1573.58 753.662 1575.94 746.166C1578.24 738.512 1577.08 728.226 1572.47 715.31C1569.33 706.539 1565.84 699.785 1561.99 695.047C1558.14 690.308 1553.72 687.484 1548.72 686.573C1543.66 685.503 1537.78 686.164 1531.08 688.556C1524.54 690.892 1519.58 694.104 1516.18 698.194C1512.89 702.067 1511.26 707.056 1511.28 713.162C1511.31 719.267 1512.88 726.705 1516.02 735.475C1520.63 748.392 1526.25 757.083 1532.88 761.547C1539.46 765.852 1547.68 766.239 1557.57 762.707Z" fill="#141118"/>
<path d="M2013.97 697.001L2015.56 676.584L2012.7 615.691C2012.32 607.741 2009.76 602.013 2005.02 598.506C2000.28 594.999 1993.17 593.468 1983.7 593.913C1977.61 594.199 1972.49 595.118 1968.32 596.67C1964.15 598.053 1960.76 599.823 1958.14 601.98C1955.53 603.967 1953.42 606.016 1951.82 608.125L1950.71 584.529L1967.29 569.256C1971.47 568.043 1975.58 567.172 1979.62 566.643C1983.66 565.945 1987.62 565.504 1991.51 565.321C2001.49 564.853 2010.53 565.954 2018.62 568.625C2026.71 571.127 2033.21 575.992 2038.12 583.22C2043.2 590.271 2046.05 600.478 2046.68 613.84L2049.55 674.987L2053.04 695.165L2013.97 697.001ZM1853.11 704.557L1854.7 684.14L1850.53 595.338L1847.04 575.159L1873.68 573.908L1884.86 600.845L1888.7 682.543L1892.19 702.721L1853.11 704.557ZM1933.54 700.779L1935.13 680.362L1932.27 619.469C1931.89 611.519 1929.34 605.791 1924.59 602.284C1919.85 598.777 1912.74 597.247 1903.27 597.691C1898.37 597.922 1894.07 598.547 1890.39 599.568C1886.71 600.588 1883.47 601.927 1880.66 603.585C1878.03 605.234 1875.74 607.122 1873.81 609.247L1873.18 595.799L1891.93 572.796C1895.78 571.768 1899.73 570.904 1903.76 570.206C1907.97 569.5 1911.93 569.06 1915.65 568.885C1924.11 568.488 1932.04 569.641 1939.46 572.344C1947.04 574.869 1953.2 579.75 1957.95 586.986C1962.86 594.045 1965.63 604.256 1966.25 617.618L1969.12 678.765L1972.62 698.943L1933.54 700.779Z" fill="#141118"/>
<path d="M2174.77 634.605C2177.28 618.202 2181.96 605.556 2188.8 596.668C2195.84 587.638 2204.29 581.652 2214.16 578.71C2224.23 575.626 2235.12 574.981 2246.84 576.775C2260.23 578.825 2270.8 583.014 2278.57 589.343C2286.37 595.504 2291.6 603.244 2294.29 612.563C2296.97 621.882 2297.43 632.316 2295.66 643.866C2295.1 647.548 2294.39 651.037 2293.55 654.334C2292.7 657.63 2291.69 661.416 2290.52 665.691L2196.37 651.275L2197.52 643.743L2222.58 631.134L2263.76 637.438C2264.78 630.743 2264.86 625.188 2264 620.773C2263.16 616.19 2260.96 612.6 2257.42 610.002C2253.91 607.236 2248.55 605.303 2241.35 604.2C2234.99 603.227 2229.72 603.533 2225.54 605.119C2221.38 606.539 2217.97 609.785 2215.31 614.86C2212.81 619.96 2210.8 627.531 2209.26 637.574C2207.93 646.278 2207.51 653.494 2208 659.223C2208.52 664.784 2209.98 669.205 2212.39 672.487C2214.97 675.793 2218.61 678.321 2223.31 680.068C2228.18 681.841 2234.13 683.266 2241.16 684.342C2247.02 685.239 2252.84 685.789 2258.64 685.991C2264.45 686.025 2270.67 685.177 2277.27 683.448L2281.91 686.727L2277.98 712.337C2273.02 713.46 2267.43 714.147 2261.22 714.396C2255.02 714.645 2247.23 714.052 2237.86 712.616C2227.98 711.104 2218.75 708.749 2210.16 705.549C2201.74 702.375 2194.45 697.919 2188.31 692.182C2182.36 686.303 2178.04 678.704 2175.35 669.385C2172.86 659.924 2172.67 648.331 2174.77 634.605Z" fill="#141118"/>
<path d="M2396.94 672.114C2401.99 656.309 2408.6 644.556 2416.76 636.853C2425.12 629.042 2434.41 624.459 2444.62 623.104C2455.05 621.64 2465.91 622.715 2477.2 626.328C2490.1 630.458 2499.89 636.258 2506.56 643.728C2513.29 651.038 2517.25 659.505 2518.44 669.13C2519.62 678.755 2518.43 689.132 2514.87 700.26C2513.74 703.808 2512.49 707.143 2511.14 710.265C2509.78 713.387 2508.19 716.968 2506.37 721.006L2415.65 691.971L2417.97 684.714L2444.7 676.2L2484.37 688.898C2486.44 682.447 2487.39 676.973 2487.23 672.477C2487.12 667.819 2485.52 663.929 2482.43 660.806C2479.39 657.523 2474.4 654.771 2467.47 652.551C2461.34 650.59 2456.09 650.064 2451.71 650.973C2447.38 651.722 2443.5 654.392 2440.07 658.985C2436.81 663.63 2433.63 670.79 2430.53 680.467C2427.85 688.853 2426.3 695.914 2425.89 701.649C2425.53 707.222 2426.28 711.819 2428.14 715.438C2430.17 719.109 2433.36 722.176 2437.73 724.641C2442.26 727.157 2447.91 729.499 2454.68 731.667C2460.33 733.474 2465.99 734.932 2471.68 736.042C2477.43 736.99 2483.69 737.129 2490.49 736.459L2494.55 740.426L2486.65 765.101C2481.57 765.43 2475.94 765.23 2469.78 764.501C2463.61 763.771 2456.01 761.961 2446.98 759.071C2437.46 756.025 2428.72 752.248 2420.74 747.738C2412.92 743.28 2406.43 737.735 2401.26 731.103C2396.3 724.361 2393.23 716.178 2392.05 706.553C2391.07 696.818 2392.7 685.339 2396.94 672.114Z" fill="#141118"/>
<path d="M2612.57 775.154L2660.23 676.879L2666.84 660.326L2699.75 676.286L2690.85 691.73L2644.75 786.805C2642.09 792.29 2641.46 796.69 2642.86 800.005C2644.34 803.168 2648.13 806.227 2654.22 809.183C2657.73 810.882 2660.84 812.018 2663.58 812.591C2666.46 813.238 2669.31 813.582 2672.11 813.623L2675.57 818.125L2663.94 842.123C2660.14 841.411 2655.89 840.289 2651.17 838.756C2646.54 837.449 2641.78 835.613 2636.9 833.249C2628.68 829.259 2621.92 824.57 2616.63 819.181C2611.41 813.64 2608.3 807.241 2607.31 799.982C2606.38 792.572 2608.14 784.295 2612.57 775.154ZM2619.4 711L2632.59 683.803L2643.11 688.901L2664.01 707.505L2692.01 712.618L2715.55 724.033L2702.37 751.23L2691.49 744.546L2631.38 715.399L2619.4 711Z" fill="#141118"/>
<path d="M2833.23 971.662C2834.39 973.714 2835.58 975.462 2836.81 976.906C2838.05 978.589 2839.46 980.075 2841.03 981.365C2844.3 984.053 2847.71 985.645 2851.25 986.141C2854.68 986.768 2858.43 985.799 2862.51 983.234L2872.87 976.625L2919.76 843.547L2948.02 866.768L2940.01 884.516L2918.36 941.676L2905.9 960.039L2907.47 961.329L2923.07 945.546L2975.14 913.381L2991 902.084L3019.45 925.467L2872.6 1012.56C2866.55 1015.92 2860.57 1017.47 2854.65 1017.21C2848.75 1017.18 2843.21 1015.92 2838.03 1013.42C2832.75 1011.05 2827.82 1007.98 2823.24 1004.22C2821.15 1002.5 2819.03 1000.54 2816.89 998.346C2814.75 996.149 2812.81 993.571 2811.08 990.613L2827.69 970.4L2833.23 971.662Z" fill="#141118"/>
<path d="M3045.86 1135.02C3037.7 1125.73 3032.04 1115.94 3028.87 1105.65C3025.94 1095.38 3026.39 1084.85 3030.21 1074.06C3034.03 1063.27 3042.12 1052.46 3054.46 1041.63C3063.63 1033.58 3072.45 1027.98 3080.94 1024.81C3089.55 1021.53 3097.79 1020.27 3105.66 1021.02C3113.64 1021.9 3121.09 1024.49 3128.01 1028.78C3135.06 1032.96 3141.66 1038.55 3147.8 1045.55C3153.94 1052.55 3158.63 1059.81 3161.86 1067.34C3165.22 1074.76 3166.76 1082.42 3166.48 1090.32C3166.32 1098.35 3164.05 1106.42 3159.68 1114.54C3155.44 1122.54 3148.74 1130.56 3139.58 1138.61C3127.23 1149.44 3115.46 1156.05 3104.27 1158.44C3093.07 1160.83 3082.52 1159.85 3072.6 1155.48C3062.93 1151.13 3054.01 1144.31 3045.86 1135.02ZM3067.24 1116.25C3074.17 1124.14 3081.55 1127.8 3089.38 1127.24C3097.35 1126.55 3106.48 1121.69 3116.79 1112.64C3123.79 1106.5 3128.78 1100.76 3131.77 1095.44C3134.76 1090.11 3135.75 1084.96 3134.76 1079.98C3133.89 1074.88 3131.11 1069.66 3126.42 1064.31C3121.84 1059.1 3117.02 1055.66 3111.97 1054.01C3107.16 1052.38 3101.92 1052.7 3096.25 1054.97C3090.58 1057.24 3084.25 1061.45 3077.25 1067.59C3066.94 1076.64 3060.93 1085.07 3059.22 1092.87C3057.64 1100.57 3060.31 1108.36 3067.24 1116.25Z" fill="#141118"/>
<path d="M3181.93 1309.38C3178.1 1303.19 3175.14 1296.95 3173.06 1290.68C3171.06 1284.54 3170.4 1278.48 3171.08 1272.49C3171.9 1266.41 3174.41 1260.48 3178.6 1254.71C3182.88 1249.07 3189.35 1243.59 3197.99 1238.25L3250.06 1206.07L3266.02 1193.23L3286.58 1226.51L3267.95 1235.03L3216.09 1267.07C3211.63 1269.83 3208.49 1272.96 3206.68 1276.47C3204.95 1280.12 3204.53 1284.27 3205.4 1288.9C3206.36 1293.68 3208.67 1299.03 3212.32 1304.93C3216.59 1311.85 3220.81 1316.9 3224.98 1320.1C3229.29 1323.21 3233.47 1325.31 3237.52 1326.39L3226.06 1333.46L3196.85 1328.22C3194.26 1325.64 3191.73 1322.83 3189.25 1319.78C3186.77 1316.74 3184.33 1313.27 3181.93 1309.38ZM3206.81 1343.86L3216.36 1330.8L3296.53 1281.27L3312.48 1268.43L3333.04 1301.7L3314.42 1310.22L3238.35 1357.22L3222.84 1369.79L3206.81 1343.86Z" fill="#141118"/>
<path d="M3324.49 1467.55L3313.63 1443.47L3431.92 1384.5L3446.97 1417.84L3324.49 1467.55ZM3274.61 1475.57C3272.38 1470.63 3271.97 1465.8 3273.37 1461.09C3274.92 1456.3 3278.55 1452.61 3284.26 1450.04C3289.82 1447.53 3294.91 1447.28 3299.53 1449.28C3304.15 1451.28 3307.57 1454.75 3309.8 1459.69C3312.1 1464.78 3312.44 1469.65 3310.81 1474.28C3309.26 1479.07 3305.7 1482.72 3300.15 1485.23C3294.44 1487.8 3289.27 1488.09 3284.65 1486.09C3280.26 1484.17 3276.91 1480.67 3274.61 1475.57Z" fill="#141118"/>
<path d="M3392.4 1853.68L3412.86 1852.8L3472.97 1842.66C3480.82 1841.34 3486.2 1838.11 3489.11 1832.99C3492.02 1827.86 3492.69 1820.62 3491.11 1811.27C3490.1 1805.26 3488.57 1800.28 3486.53 1796.33C3484.66 1792.35 3482.5 1789.19 3480.04 1786.86C3477.76 1784.5 3475.47 1782.65 3473.18 1781.32L3496.48 1777.39L3513.63 1792.01C3515.33 1796.02 3516.69 1800 3517.7 1803.95C3518.88 1807.87 3519.79 1811.75 3520.44 1815.59C3522.1 1825.45 3522.09 1834.55 3520.41 1842.9C3518.89 1851.23 3514.84 1858.27 3508.25 1864.02C3501.86 1869.9 3492.07 1873.96 3478.88 1876.18L3418.52 1886.36L3398.91 1892.25L3392.4 1853.68ZM3365.62 1694.88L3386.08 1694.01L3473.74 1679.22L3493.35 1673.34L3497.79 1699.64L3472.38 1713.97L3391.74 1727.57L3372.12 1733.45L3365.62 1694.88ZM3379.01 1774.28L3399.47 1773.41L3459.58 1763.27C3467.43 1761.94 3472.81 1758.72 3475.72 1753.59C3478.63 1748.46 3479.3 1741.22 3477.72 1731.87C3476.91 1727.03 3475.77 1722.84 3474.32 1719.31C3472.86 1715.78 3471.14 1712.72 3469.16 1710.13C3467.21 1707.71 3465.06 1705.67 3462.72 1704.01L3475.99 1701.77L3501.08 1717.63C3502.56 1721.33 3503.89 1725.14 3505.07 1729.06C3506.27 1733.15 3507.19 1737.03 3507.81 1740.71C3509.21 1749.06 3509.02 1757.07 3507.23 1764.76C3505.63 1772.59 3501.52 1779.29 3494.91 1784.87C3488.49 1790.59 3478.68 1794.56 3465.49 1796.79L3405.13 1806.97L3385.51 1812.85L3379.01 1774.28Z" fill="#141118"/>
<path d="M3384.3 2008.48C3383.39 2010.66 3382.74 2012.67 3382.35 2014.52C3381.78 2016.54 3381.46 2018.56 3381.4 2020.6C3381.28 2024.83 3382.1 2028.49 3383.87 2031.6C3385.47 2034.69 3388.54 2037.07 3393.06 2038.73L3404.63 2042.89L3538.59 1998.6L3537.5 2035.16L3518.56 2039.67L3460.09 2057.5L3437.95 2058.87L3437.89 2060.9L3459.91 2063.59L3517.21 2085.12L3535.85 2090.76L3534.75 2127.57L3376.02 2064.65C3369.67 2061.92 3364.78 2058.13 3361.37 2053.29C3357.78 2048.61 3355.4 2043.45 3354.21 2037.83C3352.85 2032.2 3352.26 2026.42 3352.44 2020.49C3352.52 2017.79 3352.77 2014.91 3353.2 2011.88C3353.63 2008.84 3354.49 2005.73 3355.77 2002.55L3381.92 2003.33L3384.3 2008.48Z" fill="#141118"/>
<path d="M3352.08 2432L3370.84 2440.21L3429.28 2457.55C3436.91 2459.81 3443.21 2459.12 3448.18 2455.47C3453.1 2451.98 3457.05 2445.21 3460.03 2435.14C3461.57 2429.95 3462.52 2425.28 3462.86 2421.14C3463.16 2417.17 3462.98 2413.59 3462.34 2410.39C3461.65 2407.36 3460.62 2404.58 3459.25 2402.06L3472.16 2405.89L3487.5 2434.55C3487.23 2437.82 3486.81 2441.05 3486.22 2444.23C3485.58 2447.58 3484.73 2451.03 3483.67 2454.6C3481.07 2463.37 3477.18 2471.14 3471.99 2477.9C3466.97 2484.71 3460.19 2489.41 3451.65 2492C3443.27 2494.64 3432.67 2494.05 3419.84 2490.25L3361.16 2472.84L3340.95 2469.5L3352.08 2432ZM3377.21 2347.26L3395.97 2355.47L3481.69 2380.89L3501.4 2384.09L3492.74 2413.31L3476.64 2414.9L3386.29 2388.1L3366.09 2384.76L3377.21 2347.26Z" fill="#141118"/>
<path d="M3272.51 2639.47L3290.85 2644.16L3344.06 2670.06C3349.39 2672.65 3354.14 2674.3 3358.32 2675.02C3362.41 2675.88 3366.38 2674.7 3370.21 2671.48C3374.11 2668.48 3378.29 2662.42 3382.73 2653.28C3385.25 2648.11 3387.2 2642.94 3388.59 2637.77C3390.05 2632.83 3390.98 2627.26 3391.36 2621.04L3395.87 2617.59L3418.71 2628.7C3417.73 2636.51 3416.03 2643.69 3413.6 2650.23C3411.17 2656.77 3408.84 2662.32 3406.62 2666.89C3399.14 2682.26 3391.57 2693.18 3383.91 2699.62C3376.33 2706.29 3368.19 2709.48 3359.48 2709.2C3350.92 2708.98 3341.31 2706.29 3330.65 2701.1L3277.66 2675.31L3258.5 2668.25L3272.51 2639.47ZM3285.33 2606.16C3288.81 2599 3293.29 2592.52 3298.75 2586.71C3304.3 2581.12 3310.88 2577.45 3318.52 2575.7C3326.3 2574.03 3335.29 2575.67 3345.49 2580.64C3353.71 2584.64 3359.56 2589.27 3363.02 2594.54C3366.56 2600.03 3368.4 2605.73 3368.54 2611.63C3368.68 2617.54 3367.76 2623.49 3365.78 2629.5C3363.95 2635.57 3361.7 2641.35 3359.04 2646.83C3357.78 2649.42 3356.33 2652.2 3354.7 2655.17C3353.21 2658.22 3351.54 2661.27 3349.68 2664.32L3329.85 2679.52L3314.78 2672.19C3318.98 2668.96 3322.65 2665.1 3325.79 2660.6C3329.07 2656.17 3332.23 2650.83 3335.27 2644.59C3339.72 2635.45 3341.72 2628.43 3341.29 2623.51C3341.01 2618.67 3337.75 2614.72 3331.51 2611.69C3324.96 2608.5 3319.66 2608.18 3315.6 2610.72C3311.61 2613.49 3307.84 2618.53 3304.28 2625.84C3299.32 2636.04 3297.14 2644.39 3297.74 2650.9C3298.26 2657.56 3300.1 2663.07 3303.25 2667.43L3294.47 2664.57L3278.39 2626.23C3279.18 2622.66 3280.21 2619.2 3281.46 2615.86C3282.56 2612.44 3283.85 2609.21 3285.33 2606.16Z" fill="#141118"/>
<path d="M3113.57 2894.1L3128.19 2908.44L3176.66 2945.41C3182.99 2950.24 3189.02 2951.96 3194.76 2950.59C3200.49 2949.21 3206.23 2944.75 3211.99 2937.21C3215.68 2932.36 3218.28 2927.85 3219.77 2923.66C3221.39 2919.57 3222.22 2915.84 3222.24 2912.45C3222.41 2909.17 3222.19 2906.24 3221.6 2903.66L3240.39 2917.98L3241.42 2940.5C3239.66 2944.48 3237.69 2948.19 3235.49 2951.63C3233.43 2955.17 3231.22 2958.48 3228.86 2961.58C3222.8 2969.52 3216.15 2975.74 3208.9 2980.22C3201.78 2984.8 3193.87 2986.65 3185.18 2985.77C3176.51 2985.12 3166.86 2980.74 3156.22 2972.63L3107.55 2935.51L3089.85 2925.2L3113.57 2894.1ZM3211.23 2766.05L3225.85 2780.4L3296.54 2834.31L3314.23 2844.61L3298.06 2865.82L3270.24 2857.06L3205.21 2807.46L3187.51 2797.16L3211.23 2766.05ZM3162.4 2830.08L3177.02 2844.42L3225.49 2881.39C3231.82 2886.21 3237.85 2887.94 3243.59 2886.56C3249.32 2885.19 3255.06 2880.73 3260.81 2873.19C3263.79 2869.28 3266.07 2865.59 3267.66 2862.12C3269.25 2858.64 3270.31 2855.3 3270.84 2852.09C3271.27 2849.01 3271.29 2846.04 3270.91 2843.2L3281.62 2851.36L3287.17 2880.51C3285.48 2884.12 3283.61 2887.7 3281.55 2891.24C3279.38 2894.91 3277.17 2898.23 3274.91 2901.19C3269.78 2907.92 3263.79 2913.26 3256.95 2917.2C3250.15 2921.38 3242.45 2922.96 3233.85 2921.94C3225.29 2921.16 3215.69 2916.72 3205.05 2908.61L3156.38 2871.48L3138.68 2861.18L3162.4 2830.08Z" fill="#141118"/>
<path d="M3058.25 3056.95C3069.21 3069.41 3075.91 3081.11 3078.33 3092.07C3080.74 3103.26 3079.9 3113.58 3075.82 3123.04C3071.72 3132.74 3065.22 3141.5 3056.33 3149.33C3046.16 3158.29 3036.16 3163.71 3026.32 3165.6C3016.59 3167.62 3007.29 3166.67 2998.42 3162.74C2989.55 3158.82 2981.26 3152.47 2973.54 3143.7C2971.08 3140.91 2968.86 3138.13 2966.87 3135.36C2964.89 3132.59 2962.63 3129.39 2960.11 3125.75L3031.6 3062.81L3036.64 3068.53L3030.22 3095.84L2998.95 3123.36C3003.43 3128.45 3007.63 3132.08 3011.58 3134.25C3015.63 3136.54 3019.79 3137.17 3024.05 3136.12C3028.43 3135.2 3033.35 3132.33 3038.82 3127.52C3043.65 3123.27 3046.8 3119.03 3048.27 3114.81C3049.85 3110.71 3049.55 3106.01 3047.36 3100.71C3045.06 3095.53 3040.54 3089.12 3033.83 3081.49C3028.01 3074.88 3022.75 3069.93 3018.04 3066.63C3013.44 3063.46 3009.11 3061.74 3005.05 3061.48C3000.86 3061.34 2996.59 3062.5 2992.23 3064.99C2987.75 3067.58 2982.83 3071.23 2977.5 3075.93C2973.05 3079.84 2968.89 3083.96 2965.01 3088.27C2961.25 3092.71 2957.91 3098.02 2955 3104.19L2949.51 3105.64L2932.39 3086.19C2934.72 3081.66 2937.78 3076.94 2941.57 3072.02C2945.36 3067.1 2950.82 3061.51 2957.94 3055.24C2965.44 3048.64 2973.17 3043.08 2981.14 3038.55C2988.98 3034.13 2997.07 3031.4 3005.41 3030.37C3013.74 3029.58 3022.34 3031.15 3031.21 3035.07C3040.06 3039.24 3049.08 3046.53 3058.25 3056.95Z" fill="#141118"/>
<path d="M2781.11 3364.78C2785.87 3362.2 2790.7 3361.52 2795.59 3362.73C2800.56 3364.08 2804.45 3367.37 2807.27 3372.58C2810.09 3377.8 2810.66 3382.78 2808.99 3387.53C2807.41 3392.43 2804.23 3396.17 2799.46 3398.74C2794.7 3401.32 2789.83 3401.93 2784.86 3400.57C2779.97 3399.36 2776.12 3396.15 2773.3 3390.94C2770.49 3385.73 2769.87 3380.67 2771.46 3375.77C2773.12 3371.02 2776.34 3367.35 2781.11 3364.78ZM2726.37 3227.19L2733.8 3246.27L2772.21 3317.33L2797.68 3303.56L2811.21 3328.59L2753.56 3359.75L2746.13 3340.66L2703.86 3262.46L2691.96 3245.79L2726.37 3227.19Z" fill="#141118"/>
<path d="M2574.17 3437.99L2564.61 3413.37L2568.43 3409.16C2573.11 3409.52 2578.19 3409.28 2583.67 3408.42C2588.99 3407.63 2594.65 3406.07 2600.65 3403.74C2603.34 3402.7 2606.48 3401.21 2610.09 3399.26C2613.53 3397.38 2616.37 3395.1 2618.6 3392.42C2620.67 3389.8 2621.06 3386.83 2619.78 3383.51C2618.49 3380.2 2615.93 3378.28 2612.1 3377.77C2608.27 3377.26 2603.69 3377.4 2598.37 3378.2C2593.05 3378.99 2587.35 3379.75 2581.27 3380.47C2575.26 3381.35 2569.31 3381.48 2563.44 3380.85C2557.56 3380.23 2552.13 3378.16 2547.13 3374.65C2542.2 3371.3 2538.23 3365.75 2535.23 3358.02C2531.62 3348.7 2531.07 3340.28 2533.6 3332.76C2536.04 3325.46 2540.79 3318.99 2547.86 3313.34C2554.84 3307.91 2563.22 3303.29 2573 3299.49C2581.69 3296.12 2590.04 3293.79 2598.08 3292.49C2605.89 3291.09 2612.63 3290.2 2618.29 3289.82L2628.31 3315.63L2624.49 3319.84C2620.76 3319.11 2615.6 3318.93 2609.03 3319.3C2602.45 3319.67 2594.27 3321.76 2584.48 3325.55C2580.06 3327.27 2576.21 3329.04 2572.92 3330.86C2569.69 3332.84 2567.35 3335.02 2565.91 3337.39C2564.48 3339.77 2564.28 3342.29 2565.32 3344.98C2566.67 3348.45 2569.22 3350.36 2572.99 3350.72C2576.67 3351.29 2581.21 3351.07 2586.63 3350.06C2591.89 3349.11 2597.53 3348.19 2603.55 3347.31C2609.4 3346.49 2615.35 3346.36 2621.38 3346.93C2627.26 3347.55 2632.72 3349.7 2637.78 3353.37C2642.74 3357.26 2646.84 3363.38 2650.09 3371.75C2652.84 3378.85 2653.99 3385.31 2653.52 3391.13C2652.89 3397 2650.84 3402.25 2647.36 3406.86C2643.73 3411.54 2639 3415.74 2633.18 3419.45C2627.2 3423.23 2620.26 3426.65 2612.37 3429.71C2604.79 3432.65 2597.86 3434.7 2591.59 3435.86C2585.23 3437.24 2579.42 3437.95 2574.17 3437.99Z" fill="#141118"/>
<path d="M2225.51 3395.71L2231.6 3413.63L2238.98 3472.35C2239.72 3478.23 2240.93 3483.12 2242.61 3487C2244.13 3490.91 2247.28 3493.58 2252.07 3495.03C2256.71 3496.66 2264.07 3496.85 2274.15 3495.58C2279.87 3494.86 2285.26 3493.67 2290.35 3492.01C2295.28 3490.54 2300.46 3488.27 2305.87 3485.2L2311.23 3487.08L2314.4 3512.29C2307.32 3515.73 2300.38 3518.23 2293.58 3519.77C2286.77 3521.3 2280.85 3522.39 2275.81 3523.02C2258.84 3525.15 2245.57 3524.77 2235.99 3521.88C2226.26 3519.18 2219.14 3514.1 2214.62 3506.65C2210.12 3499.36 2207.13 3489.84 2205.65 3478.08L2198.31 3419.61L2193.76 3399.7L2225.51 3395.71ZM2260.41 3388.25C2268.31 3387.26 2276.19 3387.47 2284.04 3388.87C2291.75 3390.46 2298.42 3393.97 2304.05 3399.41C2309.71 3405.01 2313.24 3413.45 2314.66 3424.7C2315.8 3433.77 2315.11 3441.2 2312.59 3446.98C2309.93 3452.94 2306.16 3457.6 2301.29 3460.94C2296.42 3464.28 2290.93 3466.77 2284.82 3468.39C2278.73 3470.18 2272.66 3471.45 2266.61 3472.21C2263.75 3472.57 2260.64 3472.88 2257.25 3473.13C2253.89 3473.55 2250.43 3473.82 2246.86 3473.92L2223.29 3465.62L2221.2 3448.99C2226.2 3450.75 2231.44 3451.71 2236.92 3451.88C2242.42 3452.21 2248.62 3451.94 2255.51 3451.08C2265.59 3449.81 2272.57 3447.65 2276.45 3444.61C2280.36 3441.73 2281.88 3436.84 2281.01 3429.95C2280.1 3422.73 2277.48 3418.11 2273.13 3416.1C2268.63 3414.27 2262.35 3413.87 2254.29 3414.88C2243.03 3416.29 2234.84 3419.03 2229.72 3423.09C2224.43 3427.16 2220.82 3431.71 2218.89 3436.74L2216.49 3427.82L2239.81 3393.4C2243.24 3392.12 2246.69 3391.09 2250.18 3390.31C2253.64 3389.36 2257.05 3388.68 2260.41 3388.25Z" fill="#141118"/>
<path d="M2002.45 3406.08L1999.11 3426.28L1996.7 3487.19C1996.38 3495.15 1998.6 3501.08 2003.36 3505C2007.95 3508.91 2015.49 3511.07 2025.98 3511.49C2031.4 3511.7 2036.15 3511.46 2040.25 3510.78C2044.17 3510.09 2047.6 3509.04 2050.54 3507.63C2053.31 3506.21 2055.75 3504.53 2057.86 3502.58L2057.32 3516.03L2033.32 3537.96C2030.08 3538.51 2026.85 3538.89 2023.62 3539.1C2020.22 3539.3 2016.66 3539.33 2012.94 3539.18C2003.8 3538.82 1995.32 3536.96 1987.49 3533.6C1979.65 3530.41 1973.42 3525 1968.81 3517.36C1964.19 3509.89 1962.15 3499.47 1962.68 3486.1L1965.1 3424.93L1963.36 3404.53L2002.45 3406.08ZM2090.77 3409.57L2087.43 3429.78L2083.89 3519.12L2085.65 3539.01L2055.19 3537.81L2049.69 3522.59L2053.42 3428.43L2051.69 3408.03L2090.77 3409.57Z" fill="#141118"/>
<path d="M1784.42 3380.19L1784.39 3399.12L1772.39 3457.07C1771.19 3462.87 1770.76 3467.88 1771.1 3472.1C1771.27 3476.29 1773.38 3479.84 1777.45 3482.76C1781.31 3485.81 1788.22 3488.36 1798.17 3490.42C1803.81 3491.59 1809.3 3492.21 1814.65 3492.28C1819.79 3492.48 1825.42 3492 1831.54 3490.85L1836 3494.36L1830.85 3519.24C1823.04 3520.21 1815.67 3520.33 1808.73 3519.58C1801.8 3518.84 1795.84 3517.95 1790.87 3516.92C1774.12 3513.45 1761.68 3508.8 1753.55 3502.97C1745.22 3497.27 1740.12 3490.16 1738.25 3481.65C1736.35 3473.3 1736.6 3463.32 1739 3451.71L1750.95 3394.01L1753.08 3373.7L1784.42 3380.19ZM1819.86 3384.41C1827.66 3386.03 1835.04 3388.77 1842.02 3392.63C1848.8 3396.63 1853.98 3402.11 1857.55 3409.08C1861.09 3416.21 1861.71 3425.33 1859.41 3436.44C1857.56 3445.39 1854.5 3452.2 1850.26 3456.85C1845.81 3461.64 1840.74 3464.82 1835.05 3466.41C1829.36 3468 1823.36 3468.57 1817.05 3468.13C1810.71 3467.86 1804.56 3467.1 1798.59 3465.86C1795.77 3465.28 1792.72 3464.56 1789.43 3463.71C1786.12 3463.02 1782.75 3462.15 1779.34 3461.1L1759.72 3445.63L1763.12 3429.21C1767.28 3432.49 1771.93 3435.1 1777.06 3437.03C1782.16 3439.12 1788.11 3440.87 1794.91 3442.28C1804.86 3444.34 1812.16 3444.55 1816.82 3442.92C1821.45 3441.46 1824.47 3437.33 1825.88 3430.53C1827.35 3423.4 1826.36 3418.18 1822.89 3414.87C1819.23 3411.69 1813.42 3409.28 1805.46 3407.63C1794.35 3405.33 1785.71 3405.27 1779.55 3407.45C1773.23 3409.6 1768.34 3412.74 1764.9 3416.87L1765.51 3407.66L1798.7 3382.63C1802.36 3382.52 1805.96 3382.66 1809.51 3383.05C1813.09 3383.27 1816.55 3383.73 1819.86 3384.41Z" fill="#141118"/>
<path d="M1568.35 3317.48L1558.7 3335.54L1536.85 3392.45C1534 3399.88 1534.2 3406.21 1537.45 3411.45C1540.54 3416.63 1546.99 3421.1 1556.79 3424.86C1561.85 3426.8 1566.43 3428.11 1570.52 3428.77C1574.46 3429.38 1578.05 3429.48 1581.28 3429.09C1584.36 3428.64 1587.21 3427.83 1589.83 3426.66L1585.01 3439.23L1555.24 3452.29C1551.99 3451.77 1548.81 3451.09 1545.68 3450.25C1542.4 3449.36 1539.02 3448.24 1535.54 3446.9C1527 3443.63 1519.57 3439.14 1513.23 3433.44C1506.83 3427.9 1502.67 3420.78 1500.76 3412.06C1498.78 3403.5 1500.19 3392.98 1504.99 3380.49L1526.92 3323.34L1531.83 3303.46L1568.35 3317.48ZM1650.87 3349.15L1641.22 3367.21L1609.18 3450.68L1604.45 3470.09L1576 3459.17L1575.68 3442.99L1609.44 3355.02L1614.35 3335.13L1650.87 3349.15Z" fill="#141118"/>
<path d="M1451.13 3241.92C1449.66 3240.08 1448.2 3238.54 1446.76 3237.31C1445.26 3235.85 1443.63 3234.61 1441.88 3233.59C1438.22 3231.46 1434.6 3230.43 1431.03 3230.51C1427.55 3230.43 1423.99 3231.99 1420.38 3235.17L1411.2 3243.35L1386.18 3382.21L1354.57 3363.81L1359.64 3345.01L1371.89 3285.12L1381.25 3265L1379.5 3263.98L1366.62 3282.05L1320.35 3322.12L1306.5 3335.81L1274.68 3317.27L1405.73 3207.83C1411.16 3203.55 1416.82 3201.07 1422.71 3200.38C1428.54 3199.46 1434.21 3199.82 1439.72 3201.47C1445.31 3202.96 1450.67 3205.2 1455.79 3208.18C1458.13 3209.55 1460.53 3211.14 1463 3212.97C1465.46 3214.79 1467.79 3217.03 1469.97 3219.67L1456.8 3242.28L1451.13 3241.92Z" fill="#141118"/>
<path d="M1198.13 3104.41L1189.34 3121.17L1151.86 3166.98C1148.11 3171.56 1145.4 3175.8 1143.75 3179.7C1141.96 3183.49 1142.19 3187.62 1144.44 3192.08C1146.46 3196.58 1151.39 3202.04 1159.26 3208.47C1163.71 3212.12 1168.29 3215.21 1173 3217.75C1177.47 3220.31 1182.68 3222.5 1188.64 3224.31L1190.96 3229.49L1174.87 3249.15C1167.5 3246.4 1160.91 3243.08 1155.11 3239.21C1149.31 3235.34 1144.44 3231.79 1140.51 3228.58C1127.27 3217.75 1118.4 3207.86 1113.9 3198.93C1109.16 3190.02 1107.93 3181.35 1110.22 3172.94C1112.4 3164.66 1117.24 3155.94 1124.75 3146.76L1162.07 3101.16L1173.36 3084.14L1198.13 3104.41ZM1227.58 3124.57C1233.74 3129.61 1239.02 3135.46 1243.42 3142.12C1247.57 3148.81 1249.62 3156.06 1249.56 3163.89C1249.4 3171.85 1245.72 3180.22 1238.54 3189C1232.74 3196.07 1226.89 3200.69 1220.97 3202.85C1214.81 3205.03 1208.84 3205.5 1203.06 3204.28C1197.28 3203.05 1191.7 3200.78 1186.32 3197.47C1180.82 3194.28 1175.72 3190.76 1171 3186.9C1168.77 3185.08 1166.4 3183.03 1163.89 3180.76C1161.27 3178.61 1158.69 3176.28 1156.15 3173.77L1145.93 3150.96L1156.54 3137.99C1158.71 3142.83 1161.63 3147.29 1165.28 3151.37C1168.83 3155.59 1173.29 3159.9 1178.67 3164.3C1186.53 3170.73 1192.9 3174.31 1197.79 3175.02C1202.57 3175.87 1207.15 3173.6 1211.55 3168.23C1216.16 3162.59 1217.7 3157.51 1216.16 3152.97C1214.39 3148.45 1210.35 3143.62 1204.06 3138.47C1195.28 3131.29 1187.66 3127.24 1181.19 3126.32C1174.59 3125.29 1168.8 3125.81 1163.84 3127.87L1168.64 3119.99L1209.66 3113.19C1212.95 3114.78 1216.08 3116.58 1219.04 3118.57C1222.12 3120.42 1224.96 3122.43 1227.58 3124.57Z" fill="#141118"/>
<path d="M1010.9 2921.8L993.169 2932.04L922.309 2985.73L907.647 3000.02L891.234 2978.36L900.725 2966.07L897.504 2961.82L972.615 2904.91L987.738 2891.23L1010.9 2921.8ZM937.315 2947.91L915.854 2964.17L878.552 2961.2C873.423 2958.08 869.018 2954.08 865.337 2949.23C863.292 2946.53 861.568 2943.69 860.165 2940.72C858.627 2937.84 857.426 2934.72 856.563 2931.34L880.25 2913.39L885.343 2915.9C886.14 2919.76 887.308 2923.13 888.846 2926C890.384 2928.87 891.92 2931.32 893.454 2933.34C897.646 2938.87 903.426 2943.42 910.792 2946.97C918.057 2950.39 926.897 2950.7 937.315 2947.91Z" fill="#141118"/>
<path d="M870.62 2715.63L856.257 2727.96L804.513 2756.69C799.331 2759.56 795.251 2762.51 792.273 2765.51C789.213 2768.37 787.904 2772.3 788.346 2777.28C788.558 2782.2 791.13 2789.1 796.061 2797.98C798.855 2803.02 801.97 2807.58 805.406 2811.68C808.612 2815.71 812.649 2819.67 817.516 2823.55L817.76 2829.22L795.552 2841.55C789.716 2836.27 784.816 2830.76 780.854 2825.02C776.893 2819.27 773.679 2814.18 771.214 2809.74C762.913 2794.79 758.32 2782.33 757.436 2772.36C756.321 2762.33 758.38 2753.82 763.612 2746.85C768.697 2739.96 776.421 2733.64 786.785 2727.89L838.307 2699.29L855.087 2687.65L870.62 2715.63ZM890.543 2745.24C894.406 2752.2 897.15 2759.59 898.776 2767.4C900.171 2775.15 899.395 2782.65 896.449 2789.9C893.354 2797.23 886.847 2803.65 876.927 2809.16C868.933 2813.6 861.786 2815.73 855.486 2815.54C848.957 2815.29 843.234 2813.53 838.318 2810.26C833.401 2806.98 829.052 2802.81 825.271 2797.75C821.342 2792.76 817.898 2787.6 814.94 2782.27C813.542 2779.76 812.096 2776.98 810.6 2773.93C808.957 2770.97 807.42 2767.85 805.99 2764.58L804.913 2739.61L819.571 2731.48C819.799 2736.77 820.858 2742 822.748 2747.15C824.489 2752.38 827.045 2758.03 830.414 2764.1C835.345 2772.98 839.949 2778.66 844.224 2781.12C848.351 2783.67 853.45 2783.27 859.52 2779.9C865.886 2776.36 869.194 2772.2 869.442 2767.42C869.46 2762.56 867.497 2756.58 863.552 2749.48C858.046 2739.56 852.456 2732.98 846.783 2729.74C841.028 2726.35 835.461 2724.69 830.083 2724.77L837.461 2719.22L878.091 2728.04C880.557 2730.74 882.801 2733.56 884.823 2736.51C886.993 2739.37 888.9 2742.28 890.543 2745.24Z" fill="#141118"/>
<path d="M780.396 2520.23L764.265 2530.14L708.631 2550.32C703.059 2552.34 698.566 2554.6 695.15 2557.1C691.676 2559.44 689.763 2563.11 689.412 2568.1C688.844 2572.99 690.293 2580.21 693.757 2589.76C695.721 2595.17 698.075 2600.17 700.82 2604.76C703.349 2609.25 706.709 2613.79 710.901 2618.4L710.245 2624.04L686.368 2632.7C681.439 2626.56 677.473 2620.35 674.469 2614.05C671.464 2607.76 669.096 2602.22 667.363 2597.44C661.531 2581.37 658.966 2568.34 659.668 2558.36C660.153 2548.27 663.53 2540.2 669.799 2534.15C675.909 2528.15 684.535 2523.13 695.678 2519.08L751.073 2498.99L769.482 2490.15L780.396 2520.23ZM795.388 2552.62C798.102 2560.1 799.645 2567.83 800.015 2575.8C800.168 2583.67 798.216 2590.95 794.16 2597.65C789.945 2604.4 782.505 2609.71 771.84 2613.58C763.244 2616.7 755.85 2617.67 749.659 2616.5C743.252 2615.22 737.879 2612.57 733.542 2608.56C729.205 2604.55 725.57 2599.75 722.638 2594.14C719.546 2588.6 716.961 2582.96 714.882 2577.23C713.9 2574.53 712.911 2571.55 711.916 2568.31C710.761 2565.13 709.736 2561.81 708.842 2558.35L711.725 2533.53L727.484 2527.81C726.873 2533.08 727.093 2538.4 728.145 2543.78C729.038 2549.22 730.668 2555.21 733.035 2561.73C736.5 2571.28 740.148 2577.62 743.98 2580.73C747.652 2583.9 752.751 2584.3 759.278 2581.93C766.123 2579.45 770.046 2575.87 771.048 2571.18C771.833 2566.39 770.839 2560.18 768.067 2552.54C764.198 2541.87 759.719 2534.49 754.63 2530.39C749.483 2526.13 744.248 2523.62 738.924 2522.85L747.087 2518.54L785.811 2533.67C787.82 2536.72 789.59 2539.86 791.121 2543.09C792.811 2546.26 794.233 2549.44 795.388 2552.62Z" fill="#141118"/>
<path d="M707.944 2228.86L687.474 2229.45L627.226 2238.73C619.36 2239.95 613.935 2243.1 610.949 2248.18C607.964 2253.27 607.194 2260.5 608.638 2269.87C609.567 2275.89 611.023 2280.9 613.007 2284.87C614.824 2288.88 616.942 2292.06 619.363 2294.43C621.617 2296.82 623.877 2298.7 626.143 2300.07L602.797 2303.67L585.857 2288.8C584.208 2284.77 582.906 2280.78 581.952 2276.81C580.831 2272.87 579.974 2268.98 579.38 2265.13C577.858 2255.25 577.997 2246.15 579.797 2237.82C581.43 2229.52 585.58 2222.54 592.247 2216.88C598.721 2211.09 608.568 2207.17 621.789 2205.13L682.289 2195.81L701.985 2190.2L707.944 2228.86ZM732.478 2388.02L712.008 2388.6L624.146 2402.15L604.45 2407.75L600.387 2381.4L625.99 2367.43L706.823 2354.96L726.519 2349.36L732.478 2388.02ZM720.211 2308.44L699.741 2309.03L639.493 2318.31C631.627 2319.53 626.202 2322.67 623.216 2327.76C620.231 2332.85 619.461 2340.08 620.905 2349.45C621.653 2354.3 622.73 2358.5 624.134 2362.06C625.538 2365.61 627.213 2368.69 629.158 2371.31C631.077 2373.75 633.195 2375.82 635.513 2377.52L622.208 2379.57L597.35 2363.36C595.92 2359.64 594.644 2355.81 593.523 2351.87C592.376 2347.76 591.518 2343.87 590.951 2340.19C589.661 2331.82 589.968 2323.81 591.871 2316.14C593.581 2308.34 597.782 2301.7 604.475 2296.21C610.975 2290.58 620.835 2286.75 634.056 2284.71L694.556 2275.39L714.252 2269.78L720.211 2308.44Z" fill="#141118"/>
<path d="M699.442 2061.01C699.388 2066.6 697.734 2071.24 694.481 2074.94C691.06 2078.46 686.218 2080.19 679.953 2080.13C673.857 2080.07 669.133 2078.25 665.781 2074.66C662.43 2070.9 660.782 2066.23 660.836 2060.64C660.888 2055.22 662.626 2050.67 666.048 2046.98C669.47 2043.28 674.23 2041.47 680.325 2041.53C686.59 2041.59 691.398 2043.5 694.749 2047.25C697.93 2051.01 699.494 2055.6 699.442 2061.01Z" fill="#141118"/>
</svg>
