<svg width="3200" height="3203" viewBox="0 0 3200 3203" fill="none" xmlns="http://www.w3.org/2000/svg">
<path d="M1711.13 250.979L1715.35 230.941L1720.41 170.191C1721.07 162.26 1719.11 156.234 1714.53 152.114C1710.11 148.008 1702.67 145.518 1692.21 144.646C1686.81 144.196 1682.05 144.224 1677.93 144.73C1673.98 145.251 1670.5 146.151 1667.51 147.43C1664.68 148.724 1662.17 150.299 1659.98 152.155L1661.1 138.74L1686.03 117.879C1689.29 117.471 1692.54 117.232 1695.77 117.162C1699.18 117.105 1702.73 117.232 1706.45 117.541C1715.56 118.301 1723.95 120.53 1731.63 124.229C1739.32 127.758 1745.31 133.44 1749.58 141.272C1753.87 148.937 1755.46 159.434 1754.35 172.765L1749.26 233.768L1750.11 254.228L1711.13 250.979ZM1623.04 243.637L1627.26 223.598L1634.69 134.499L1633.8 114.545L1664.18 117.077L1669.01 132.517L1661.18 226.425L1662.02 246.886L1623.04 243.637Z" fill="#141118"/>
<path d="M1911.84 131.846C1906.55 130.661 1902.46 128.01 1899.56 123.891C1896.71 119.606 1895.92 114.573 1897.22 108.789C1898.52 103.006 1901.35 98.8688 1905.73 96.3783C1910.14 93.7225 1914.99 92.9868 1920.28 94.1712C1925.56 95.3556 1929.64 98.0899 1932.49 102.374C1935.39 106.493 1936.19 111.444 1934.89 117.228C1933.6 123.011 1930.74 127.231 1926.33 129.886C1921.96 132.377 1917.13 133.03 1911.84 131.846ZM1862.84 271.581L1869.76 252.307L1887.41 173.488L1859.16 167.159L1865.38 139.399L1929.32 153.722L1922.4 172.996L1902.97 259.746L1901.01 280.13L1862.84 271.581Z" fill="#141118"/>
<path d="M2050.11 326.405C2041.99 323.461 2034.37 319.62 2027.27 314.881C2020.22 309.983 2014.29 303.962 2009.5 296.82C2004.92 289.576 2002.19 281.202 2001.32 271.698C2000.5 262.035 2002.34 250.995 2006.84 238.578C2011.17 226.639 2016.56 217.245 2023.01 210.396C2029.45 203.547 2036.6 198.752 2044.43 196.011C2052.27 193.269 2060.58 192.228 2069.34 192.885C2078.11 193.543 2086.87 195.459 2095.63 198.634C2102.16 201.001 2107.63 203.528 2112.06 206.215C2116.65 208.959 2120.7 211.957 2124.2 215.209L2115.28 239.804L2109.64 240.46C2107.03 237.714 2103.86 235.033 2100.13 232.418C2096.55 229.86 2092.06 227.6 2086.65 225.638C2079.48 223.04 2072.86 222.171 2066.79 223.03C2060.77 223.73 2055.4 226.375 2050.67 230.965C2046.16 235.454 2042.32 242.076 2039.15 250.831C2036.66 257.677 2035.35 263.776 2035.21 269.129C2035.13 274.322 2036 278.872 2037.83 282.776C2039.87 286.579 2042.81 289.897 2046.65 292.729C2050.48 295.561 2055.11 297.958 2060.52 299.921C2066.57 302.114 2071.79 303.376 2076.17 303.704C2080.77 303.932 2084.95 303.827 2088.71 303.389L2092.62 307.509L2083.79 331.865C2078.64 332.159 2073.35 331.86 2067.91 330.968C2062.41 330.235 2056.47 328.714 2050.11 326.405Z" fill="#141118"/>
<path d="M2198.64 311.103C2206.58 296.533 2215.28 286.234 2224.74 280.204C2234.43 274.107 2244.42 271.355 2254.7 271.947C2265.22 272.472 2275.68 275.571 2286.08 281.245C2297.98 287.729 2306.5 295.268 2311.65 303.862C2316.88 312.307 2319.17 321.368 2318.53 331.044C2317.88 340.721 2314.76 350.688 2309.17 360.947C2307.39 364.218 2305.54 367.259 2303.62 370.07C2301.7 372.881 2299.46 376.098 2296.91 379.721L2213.28 334.129L2216.93 327.438L2244.78 324.108L2281.35 344.046C2284.6 338.099 2286.56 332.903 2287.25 328.456C2288.02 323.861 2287.18 319.74 2284.73 316.091C2282.37 312.294 2277.99 308.653 2271.59 305.168C2265.94 302.088 2260.88 300.582 2256.41 300.651C2252.02 300.571 2247.71 302.464 2243.48 306.33C2239.4 310.277 2234.93 316.711 2230.06 325.631C2225.85 333.362 2223 340.005 2221.51 345.56C2220.11 350.966 2219.98 355.621 2221.13 359.527C2222.43 363.513 2224.99 367.128 2228.82 370.37C2232.79 373.694 2237.9 377.058 2244.14 380.462C2249.35 383.299 2254.64 385.798 2260.02 387.959C2265.48 389.971 2271.61 391.288 2278.4 391.908L2281.65 396.57L2269.25 419.317C2264.19 418.683 2258.71 417.427 2252.79 415.55C2246.87 413.673 2239.74 410.465 2231.42 405.926C2222.65 401.144 2214.77 395.787 2207.78 389.856C2200.94 384.006 2195.61 377.338 2191.78 369.851C2188.18 362.298 2186.71 353.683 2187.35 344.006C2188.23 334.262 2191.99 323.295 2198.64 311.103Z" fill="#141118"/>
<path d="M2492.66 530.449L2565.8 449.326L2576.76 435.269L2603.92 459.76L2591.08 472.115L2520.33 550.597C2516.24 555.125 2514.42 559.176 2514.84 562.751C2515.38 566.2 2518.16 570.192 2523.19 574.727C2526.09 577.335 2528.77 579.295 2531.23 580.606C2533.82 582.03 2536.46 583.152 2539.14 583.973L2541.21 589.261L2523.36 609.07C2519.91 607.33 2516.13 605.068 2512.03 602.283C2507.94 599.737 2503.89 596.65 2499.86 593.022C2493.07 586.899 2487.88 580.514 2484.3 573.865C2480.83 567.091 2479.63 560.079 2480.7 552.83C2481.87 545.455 2485.86 537.995 2492.66 530.449ZM2517.09 470.733L2537.33 448.283L2546 456.106L2560.9 479.794L2586.38 492.501L2605.81 510.019L2585.57 532.469L2576.99 523.022L2527.37 478.294L2517.09 470.733Z" fill="#141118"/>
<path d="M2619.92 714.154C2612.03 704.638 2606.65 694.694 2603.77 684.323C2601.13 673.974 2601.87 663.461 2606 652.783C2610.12 642.105 2618.51 631.524 2631.15 621.042C2640.54 613.261 2649.52 607.907 2658.09 604.98C2666.79 601.946 2675.06 600.915 2682.91 601.889C2690.86 602.994 2698.24 605.788 2705.04 610.272C2711.96 614.647 2718.4 620.42 2724.34 627.59C2730.29 634.76 2734.77 642.154 2737.78 649.772C2740.93 657.282 2742.25 664.982 2741.75 672.872C2741.37 680.893 2738.87 688.898 2734.28 696.886C2729.81 704.767 2722.89 712.598 2713.5 720.379C2700.86 730.861 2688.9 737.14 2677.65 739.214C2666.39 741.288 2655.87 740.004 2646.08 735.36C2636.53 730.739 2627.81 723.671 2619.92 714.154ZM2641.82 695.998C2648.52 704.081 2655.8 707.948 2663.65 707.6C2671.63 707.143 2680.9 702.538 2691.46 693.784C2698.63 687.841 2703.78 682.249 2706.91 677.011C2710.05 671.772 2711.19 666.647 2710.34 661.637C2709.61 656.518 2706.98 651.221 2702.44 645.746C2698.01 640.401 2693.29 636.833 2688.29 635.043C2683.52 633.274 2678.28 633.445 2672.55 635.555C2666.82 637.665 2660.37 641.692 2653.2 647.636C2642.64 656.389 2636.4 664.645 2634.47 672.402C2632.67 680.05 2635.12 687.916 2641.82 695.998Z" fill="#141118"/>
<path d="M2859.67 1102.4L2879.39 1096.91L2935.63 1073.39C2942.98 1070.32 2947.49 1065.96 2949.16 1060.31C2950.83 1054.65 2949.84 1047.45 2946.18 1038.7C2943.83 1033.08 2941.21 1028.57 2938.33 1025.19C2935.6 1021.74 2932.78 1019.16 2929.86 1017.44C2927.1 1015.66 2924.45 1014.38 2921.92 1013.6L2943.72 1004.49L2963.74 1014.84C2966.31 1018.36 2968.53 1021.92 2970.41 1025.54C2972.45 1029.09 2974.22 1032.67 2975.72 1036.26C2979.58 1045.48 2981.63 1054.35 2981.89 1062.86C2982.3 1071.32 2979.96 1079.09 2974.84 1086.18C2969.96 1093.37 2961.34 1099.54 2949 1104.7L2892.52 1128.31L2874.75 1138.49L2859.67 1102.4ZM2797.55 953.829L2817.28 948.334L2899.3 914.042L2917.06 903.861L2927.35 928.467L2905.86 948.188L2830.4 979.736L2812.64 989.918L2797.55 953.829ZM2828.61 1028.12L2848.33 1022.62L2904.58 999.106C2911.92 996.037 2916.43 991.674 2918.1 986.019C2919.77 980.364 2918.78 973.162 2915.12 964.413C2913.23 959.882 2911.17 956.062 2908.96 952.951C2906.74 949.841 2904.37 947.252 2901.85 945.184C2899.4 943.272 2896.85 941.77 2894.19 940.68L2906.61 935.487L2934.64 945.242C2936.92 948.508 2939.08 951.918 2941.12 955.472C2943.22 959.182 2944.99 962.755 2946.43 966.192C2949.69 974.003 2951.32 981.856 2951.32 989.749C2951.54 997.734 2949.06 1005.19 2943.88 1012.13C2938.93 1019.16 2930.28 1025.25 2917.94 1030.41L2861.46 1054.02L2843.7 1064.2L2828.61 1028.12Z" fill="#141118"/>
<path d="M2973.29 1232.16C2989.57 1228.91 3003.05 1228.98 3013.74 1232.37C3024.63 1235.89 3033.15 1241.79 3039.29 1250.06C3045.63 1258.46 3049.96 1268.48 3052.29 1280.1C3054.94 1293.39 3054.62 1304.76 3051.33 1314.22C3048.21 1323.65 3042.72 1331.22 3034.89 1336.93C3027.05 1342.64 3017.4 1346.64 3005.94 1348.93C3002.29 1349.66 2998.77 1350.19 2995.38 1350.52C2991.99 1350.85 2988.09 1351.2 2983.67 1351.57L2965.02 1258.16L2972.49 1256.67L2992.91 1275.9L3001.07 1316.75C3007.71 1315.42 3012.96 1313.6 3016.81 1311.28C3020.83 1308.92 3023.45 1305.63 3024.68 1301.41C3026.08 1297.16 3026.06 1291.47 3024.64 1284.33C3023.38 1278.02 3021.29 1273.17 3018.37 1269.78C3015.61 1266.36 3011.39 1264.27 3005.71 1263.5C3000.07 1262.9 2992.26 1263.6 2982.3 1265.59C2973.67 1267.31 2966.74 1269.39 2961.53 1271.81C2956.48 1274.2 2952.83 1277.09 2950.57 1280.47C2948.34 1284.03 2947.21 1288.31 2947.18 1293.32C2947.17 1298.5 2947.87 1304.58 2949.26 1311.56C2950.42 1317.37 2951.9 1323.03 2953.69 1328.54C2955.65 1334.02 2958.57 1339.57 2962.45 1345.18L2960.96 1350.66L2935.55 1355.74C2932.8 1351.45 2930.24 1346.44 2927.89 1340.69C2925.53 1334.95 2923.42 1327.42 2921.57 1318.12C2919.61 1308.33 2918.66 1298.85 2918.73 1289.68C2918.84 1280.68 2920.53 1272.31 2923.82 1264.58C2927.31 1256.97 2932.97 1250.31 2940.81 1244.6C2948.85 1239.03 2959.68 1234.88 2973.29 1232.16Z" fill="#141118"/>
<path d="M3014.03 1453.76C3030.62 1453.11 3043.92 1455.29 3053.95 1460.32C3064.15 1465.51 3071.63 1472.68 3076.4 1481.81C3081.34 1491.1 3084.04 1501.67 3084.51 1513.52C3085.04 1527.05 3082.94 1538.24 3078.2 1547.07C3073.63 1555.89 3067.03 1562.5 3058.39 1566.91C3049.75 1571.32 3039.6 1573.75 3027.92 1574.21C3024.2 1574.36 3020.64 1574.33 3017.24 1574.12C3013.85 1573.92 3009.94 1573.65 3005.52 1573.31L3001.77 1478.13L3009.39 1477.84L3026.53 1500.04L3028.17 1541.66C3034.94 1541.4 3040.4 1540.42 3044.57 1538.73C3048.91 1537.03 3052.02 1534.2 3053.9 1530.23C3055.95 1526.25 3056.83 1520.62 3056.54 1513.35C3056.29 1506.92 3054.98 1501.8 3052.63 1498C3050.45 1494.18 3046.61 1491.45 3041.13 1489.81C3035.64 1488.33 3027.83 1487.79 3017.68 1488.19C3008.88 1488.53 3001.71 1489.49 2996.18 1491.06C2990.82 1492.63 2986.76 1494.91 2984 1497.9C2981.24 1501.06 2979.45 1505.11 2978.63 1510.06C2977.81 1515.17 2977.54 1521.28 2977.82 1528.39C2978.06 1534.31 2978.62 1540.14 2979.53 1545.86C2980.6 1551.58 2982.61 1557.52 2985.57 1563.67L2983.23 1568.85L2957.34 1569.87C2955.29 1565.2 2953.56 1559.85 2952.13 1553.8C2950.71 1547.76 2949.81 1540 2949.44 1530.52C2949.04 1520.54 2949.6 1511.03 2951.11 1501.99C2952.63 1493.12 2955.62 1485.12 2960.08 1478C2964.72 1471.03 2971.36 1465.35 2980 1460.94C2988.81 1456.7 3000.16 1454.3 3014.03 1453.76Z" fill="#141118"/>
<path d="M2990.96 1691.63L3099.61 1702.8L3117.42 1703.36L3113.68 1739.74L3096.13 1736.66L2991.02 1725.85C2984.95 1725.23 2980.6 1726.14 2977.97 1728.6C2975.5 1731.07 2973.92 1735.67 2973.23 1742.41C2972.83 1746.28 2972.83 1749.6 2973.23 1752.37C2973.61 1755.3 2974.25 1758.09 2975.17 1760.74L2972.13 1765.53L2945.6 1762.8C2944.97 1758.99 2944.57 1754.61 2944.4 1749.66C2944.04 1744.85 2944.14 1739.76 2944.69 1734.37C2945.63 1725.27 2947.72 1717.31 2950.97 1710.5C2954.4 1703.7 2959.35 1698.59 2965.83 1695.17C2972.48 1691.77 2980.85 1690.59 2990.96 1691.63ZM3053.58 1676.11L3083.65 1679.2L3082.45 1690.82L3072.12 1716.83L3076.9 1744.89L3074.22 1770.92L3044.15 1767.83L3046.71 1755.32L3053.55 1688.87L3053.58 1676.11Z" fill="#141118"/>
<path d="M2881.77 1966.19C2880.24 1967.98 2879.01 1969.7 2878.07 1971.35C2876.91 1973.09 2876 1974.93 2875.32 1976.84C2873.92 1980.84 2873.58 1984.58 2874.33 1988.07C2874.91 1991.51 2877.11 1994.71 2880.91 1997.66L2890.67 2005.14L3031.76 2003.69L3019.6 2038.19L3000.19 2036.73L2939.07 2035.93L2917.55 2030.5L2916.87 2032.42L2937.04 2041.68L2985.08 2079.61L3001.11 2090.65L2988.87 2125.39L2856.8 2017.18C2851.58 2012.64 2848.08 2007.55 2846.3 2001.89C2844.3 1996.34 2843.6 1990.71 2844.18 1984.99C2844.6 1979.21 2845.79 1973.53 2847.76 1967.94C2848.66 1965.38 2849.78 1962.72 2851.11 1959.96C2852.44 1957.2 2854.2 1954.5 2856.39 1951.86L2881.06 1960.55L2881.77 1966.19Z" fill="#141118"/>
<path d="M2800.99 2221.87C2806.93 2211.03 2814.19 2202.36 2822.77 2195.86C2831.42 2189.6 2841.47 2186.41 2852.92 2186.32C2864.36 2186.22 2877.29 2190.12 2891.69 2198.01C2902.38 2203.87 2910.67 2210.25 2916.55 2217.14C2922.57 2224.11 2926.58 2231.42 2928.56 2239.08C2930.47 2246.88 2930.59 2254.76 2928.92 2262.73C2927.4 2270.78 2924.41 2278.89 2919.93 2287.06C2915.46 2295.23 2910.23 2302.12 2904.26 2307.73C2898.44 2313.42 2891.77 2317.48 2884.25 2319.93C2876.65 2322.52 2868.29 2323.15 2859.17 2321.82C2850.2 2320.58 2840.37 2317.02 2829.67 2311.16C2815.27 2303.27 2805.03 2294.47 2798.96 2284.77C2792.88 2275.06 2790.2 2264.81 2790.91 2254C2791.69 2243.42 2795.05 2232.71 2800.99 2221.87ZM2825.94 2235.54C2820.89 2244.75 2819.98 2252.94 2823.19 2260.1C2826.55 2267.36 2834.25 2274.28 2846.28 2280.87C2854.44 2285.35 2861.54 2288.08 2867.57 2289.06C2873.59 2290.05 2878.78 2289.22 2883.12 2286.58C2887.61 2284.02 2891.57 2279.62 2894.99 2273.39C2898.32 2267.3 2899.9 2261.6 2899.72 2256.29C2899.61 2251.21 2897.52 2246.39 2893.45 2241.84C2889.38 2237.29 2883.26 2232.78 2875.09 2228.3C2863.06 2221.71 2853.09 2218.95 2845.17 2220.01C2837.39 2221.16 2830.98 2226.33 2825.94 2235.54Z" fill="#141118"/>
<path d="M2683.68 2409.36C2688.19 2403.65 2693.04 2398.74 2698.23 2394.63C2703.3 2390.66 2708.77 2387.97 2714.64 2386.55C2720.63 2385.24 2727.06 2385.57 2733.92 2387.54C2740.68 2389.64 2748.04 2393.83 2756.02 2400.13L2804.06 2438.06L2821.59 2448.66L2797.35 2479.36L2782.97 2464.77L2735.13 2427C2731.01 2423.75 2726.99 2421.87 2723.07 2421.37C2719.05 2421 2715.01 2422.01 2710.95 2424.42C2706.79 2426.96 2702.56 2430.95 2698.26 2436.4C2693.22 2442.78 2689.91 2448.48 2688.33 2453.48C2686.88 2458.6 2686.34 2463.24 2686.72 2467.42L2676.15 2459.08L2671.08 2429.83C2672.62 2426.52 2674.4 2423.18 2676.41 2419.8C2678.43 2416.43 2680.85 2412.95 2683.68 2409.36ZM2659.79 2444.55L2675.33 2449.05L2749.29 2507.44L2766.82 2518.04L2742.58 2548.74L2728.2 2534.15L2658.03 2478.75L2640.9 2468.47L2659.79 2444.55Z" fill="#141118"/>
<path d="M2583.81 2597.43L2602.72 2578.98L2698.59 2669.98L2672.41 2695.52L2583.81 2597.43ZM2559.21 2553.3C2563.09 2549.52 2567.49 2547.47 2572.4 2547.18C2577.43 2547 2582.14 2549.15 2586.51 2553.64C2590.77 2558 2592.75 2562.69 2592.44 2567.72C2592.14 2572.75 2590.05 2577.15 2586.17 2580.93C2582.17 2584.84 2577.72 2586.82 2572.81 2586.88C2567.78 2587.05 2563.13 2584.96 2558.88 2580.6C2554.5 2576.11 2552.46 2571.36 2552.76 2566.33C2553.06 2561.55 2555.21 2557.2 2559.21 2553.3Z" fill="#141118"/>
<path d="M2244.2 2793.31L2252.02 2812.23L2282.1 2865.25C2286.03 2872.17 2290.9 2876.12 2296.72 2877.11C2302.53 2878.09 2309.56 2876.24 2317.81 2871.56C2323.11 2868.55 2327.27 2865.42 2330.28 2862.15C2333.38 2859.03 2335.61 2855.92 2336.96 2852.81C2338.4 2849.85 2339.35 2847.07 2339.82 2844.47L2351.48 2865.02L2343.6 2886.13C2340.42 2889.1 2337.15 2891.74 2333.78 2894.04C2330.5 2896.49 2327.16 2898.67 2323.77 2900.6C2315.08 2905.53 2306.53 2908.63 2298.1 2909.91C2289.76 2911.33 2281.76 2909.93 2274.11 2905.71C2266.39 2901.72 2259.23 2893.9 2252.63 2882.27L2222.41 2829.03L2210.18 2812.61L2244.2 2793.31ZM2384.25 2713.83L2392.07 2732.75L2435.95 2810.07L2448.19 2826.49L2424.99 2839.65L2402.84 2820.68L2362.47 2749.55L2350.23 2733.13L2384.25 2713.83ZM2314.22 2753.57L2322.04 2772.49L2352.13 2825.51C2356.06 2832.43 2360.93 2836.38 2366.75 2837.37C2372.56 2838.35 2379.59 2836.5 2387.84 2831.82C2392.11 2829.4 2395.66 2826.9 2398.48 2824.33C2401.3 2821.75 2403.59 2819.09 2405.34 2816.34C2406.94 2813.68 2408.13 2810.96 2408.89 2808.19L2415.54 2819.9L2409.21 2848.9C2406.24 2851.56 2403.12 2854.11 2399.83 2856.56C2396.4 2859.09 2393.07 2861.27 2389.83 2863.11C2382.46 2867.29 2374.86 2869.85 2367.02 2870.8C2359.12 2871.97 2351.42 2870.4 2343.91 2866.1C2336.34 2862.02 2329.26 2854.16 2322.66 2842.53L2292.44 2789.29L2280.21 2772.87L2314.22 2753.57Z" fill="#141118"/>
<path d="M2095.96 2838.65C2093.6 2838.53 2091.49 2838.61 2089.61 2838.87C2087.52 2839.03 2085.51 2839.42 2083.58 2840.06C2079.56 2841.39 2076.4 2843.42 2074.09 2846.14C2071.73 2848.71 2070.54 2852.4 2070.53 2857.22L2070.58 2869.51L2158.02 2980.25L2123.29 2991.73L2112.57 2975.48L2075.82 2926.63L2066.95 2906.29L2065.03 2906.92L2070.03 2928.54L2069.4 2989.75L2070.48 3009.19L2035.51 3020.75L2040.35 2850.07C2040.74 2843.17 2042.63 2837.28 2046.01 2832.42C2049.18 2827.45 2053.21 2823.44 2058.09 2820.4C2062.92 2817.2 2068.14 2814.67 2073.77 2812.81C2076.34 2811.96 2079.13 2811.21 2082.13 2810.58C2085.13 2809.94 2088.34 2809.68 2091.77 2809.8L2099.98 2834.64L2095.96 2838.65Z" fill="#141118"/>
<path d="M1686.96 2953.21L1685.66 2973.65L1689.36 3034.5C1689.84 3042.44 1692.65 3048.12 1697.78 3051.54C1702.74 3054.97 1710.46 3056.37 1720.93 3055.73C1726.34 3055.4 1731.05 3054.69 1735.06 3053.6C1738.89 3052.52 1742.2 3051.13 1744.98 3049.44C1747.59 3047.75 1749.85 3045.83 1751.76 3043.68L1752.57 3057.12L1730.89 3081.34C1727.72 3082.21 1724.54 3082.91 1721.35 3083.45C1717.99 3083.99 1714.45 3084.37 1710.73 3084.6C1701.6 3085.16 1692.97 3084.15 1684.85 3081.59C1676.73 3079.2 1669.99 3074.44 1664.64 3067.3C1659.29 3060.33 1656.22 3050.17 1655.4 3036.82L1651.69 2975.72L1647.92 2955.59L1686.96 2953.21ZM1775.19 2947.85L1773.89 2968.28L1779.32 3057.53L1783.06 3077.15L1752.63 3079L1745.64 3064.41L1739.92 2970.35L1736.15 2950.22L1775.19 2947.85Z" fill="#141118"/>
<path d="M1464.79 2949.4L1466.66 2968.24L1460.52 3027.1C1459.91 3033 1459.98 3038.03 1460.74 3042.19C1461.33 3046.34 1463.79 3049.66 1468.13 3052.16C1472.28 3054.8 1479.4 3056.65 1489.51 3057.7C1495.24 3058.3 1500.76 3058.37 1506.09 3057.9C1511.23 3057.59 1516.79 3056.55 1522.76 3054.79L1527.55 3057.84L1524.91 3083.1C1517.24 3084.86 1509.92 3085.71 1502.94 3085.66C1495.96 3085.62 1489.95 3085.33 1484.9 3084.8C1467.89 3083.03 1455.04 3079.65 1446.37 3074.66C1437.51 3069.82 1431.73 3063.26 1429.02 3054.97C1426.29 3046.86 1425.54 3036.9 1426.77 3025.12L1432.88 2966.5L1432.96 2946.08L1464.79 2949.4ZM1500.48 2950.06C1508.39 2950.88 1516.02 2952.87 1523.35 2956.02C1530.5 2959.32 1536.2 2964.25 1540.45 2970.82C1544.68 2977.56 1546.21 2986.58 1545.04 2997.86C1544.09 3006.96 1541.73 3014.03 1537.97 3019.09C1534.02 3024.29 1529.3 3027.97 1523.8 3030.12C1518.29 3032.27 1512.38 3033.44 1506.06 3033.64C1499.73 3034 1493.53 3033.86 1487.46 3033.23C1484.6 3032.93 1481.49 3032.52 1478.14 3032C1474.78 3031.65 1471.34 3031.12 1467.84 3030.42L1446.77 3016.98L1448.5 3000.31C1452.97 3003.16 1457.86 3005.29 1463.16 3006.69C1468.45 3008.26 1474.54 3009.41 1481.45 3010.13C1491.55 3011.18 1498.84 3010.67 1503.31 3008.58C1507.77 3006.66 1510.36 3002.25 1511.08 2995.34C1511.83 2988.1 1510.32 2983.01 1506.54 2980.06C1502.58 2977.26 1496.55 2975.44 1488.47 2974.6C1477.19 2973.42 1468.59 2974.23 1462.68 2977.02C1456.6 2979.79 1452.05 2983.4 1449.04 2987.85L1448.72 2978.63L1479.25 2950.4C1482.87 2949.92 1486.47 2949.7 1490.04 2949.74C1493.63 2949.6 1497.11 2949.71 1500.48 2950.06Z" fill="#141118"/>
<path d="M1171.16 2887.14L1162.68 2905.78L1144.52 2963.97C1142.15 2971.57 1142.59 2977.83 1145.85 2982.75C1149.1 2987.67 1155.25 2991.54 1164.31 2994.36C1170.13 2996.18 1175.26 2997.07 1179.7 2997.04C1184.1 2997.17 1187.89 2996.67 1191.08 2995.53C1194.22 2994.56 1196.9 2993.36 1199.13 2991.92L1192.09 3014.47L1171.29 3023.15C1166.94 3022.86 1162.78 3022.27 1158.8 3021.38C1154.77 3020.66 1150.9 3019.71 1147.18 3018.55C1137.64 3015.58 1129.53 3011.45 1122.84 3006.17C1116.1 3001.05 1111.66 2994.25 1109.51 2985.78C1107.15 2977.41 1107.97 2966.85 1111.95 2954.08L1130.19 2895.64L1133.82 2875.49L1171.16 2887.14ZM1324.88 2935.11L1316.4 2953.76L1289.92 3038.62L1286.29 3058.77L1260.83 3050.83L1259.55 3021.69L1283.91 2943.62L1287.54 2923.46L1324.88 2935.11ZM1248.02 2911.13L1239.54 2929.77L1221.38 2987.96C1219.01 2995.56 1219.45 3001.82 1222.71 3006.73C1225.96 3011.65 1232.12 3015.52 1241.17 3018.35C1245.86 3019.81 1250.1 3020.69 1253.91 3021C1257.72 3021.3 1261.23 3021.15 1264.43 3020.55C1267.47 3019.9 1270.26 3018.91 1272.81 3017.58L1268.8 3030.43L1243.3 3045.62C1239.33 3045.27 1235.33 3044.73 1231.3 3044.01C1227.11 3043.23 1223.23 3042.29 1219.68 3041.18C1211.59 3038.65 1204.53 3034.85 1198.49 3029.78C1192.23 3024.81 1188.11 3018.11 1186.13 3009.69C1183.94 3001.38 1184.83 2990.83 1188.82 2978.06L1207.05 2919.63L1210.68 2899.48L1248.02 2911.13Z" fill="#141118"/>
<path d="M999.201 2890.85C991.246 2905.42 982.537 2915.71 973.074 2921.73C963.381 2927.82 953.392 2930.57 943.108 2929.96C932.594 2929.43 922.136 2926.32 911.733 2920.64C899.844 2914.15 891.328 2906.6 886.184 2898C880.959 2889.56 878.673 2880.49 879.327 2870.82C879.982 2861.14 883.109 2851.18 888.71 2840.92C890.496 2837.65 892.349 2834.61 894.269 2831.8C896.19 2828.99 898.429 2825.78 900.985 2822.16L984.578 2867.82L980.926 2874.5L953.071 2877.81L916.513 2857.84C913.266 2863.79 911.296 2868.98 910.605 2873.43C909.832 2878.02 910.667 2882.15 913.111 2885.8C915.474 2889.6 919.851 2893.24 926.241 2896.73C931.888 2899.81 936.948 2901.32 941.422 2901.26C945.814 2901.34 950.126 2899.45 954.358 2895.59C958.442 2891.65 962.918 2885.22 967.789 2876.3C972.01 2868.57 974.865 2861.93 976.355 2856.38C977.763 2850.97 977.894 2846.32 976.748 2842.41C975.453 2838.42 972.894 2834.81 969.071 2831.56C965.1 2828.24 959.993 2824.87 953.752 2821.46C948.55 2818.62 943.261 2816.11 937.884 2813.95C932.425 2811.93 926.297 2810.61 919.5 2809.99L916.259 2805.32L928.678 2782.58C933.732 2783.22 939.218 2784.48 945.136 2786.36C951.054 2788.25 958.175 2791.46 966.497 2796C975.265 2800.79 983.141 2806.16 990.124 2812.09C996.959 2817.95 1002.29 2824.62 1006.11 2832.11C1009.7 2839.67 1011.17 2848.28 1010.51 2857.96C1009.63 2867.7 1005.86 2878.67 999.201 2890.85Z" fill="#141118"/>
<path d="M615.152 2735.71C619.203 2739.3 621.497 2743.61 622.034 2748.61C622.458 2753.74 620.702 2758.53 616.767 2762.96C612.831 2767.39 608.346 2769.63 603.312 2769.69C598.165 2769.88 593.566 2768.17 589.515 2764.57C585.463 2760.97 583.225 2756.61 582.801 2751.48C582.265 2746.47 583.964 2741.75 587.9 2737.32C591.835 2732.89 596.376 2730.58 601.523 2730.4C606.557 2730.34 611.1 2732.11 615.152 2735.71ZM725.724 2637.21L710.331 2650.72L656.695 2711.11L678.346 2730.34L659.455 2751.61L610.457 2708.1L625.849 2694.59L684.883 2628.12L696.477 2611.24L725.724 2637.21Z" fill="#141118"/>
<path d="M475.574 2566.29L495.447 2548.88L500.705 2551.03C501.965 2555.56 503.934 2560.25 506.612 2565.1C509.179 2569.83 512.582 2574.62 516.821 2579.46C518.717 2581.63 521.195 2584.07 524.255 2586.79C527.203 2589.39 530.318 2591.27 533.6 2592.45C536.77 2593.5 539.693 2592.86 542.368 2590.51C545.044 2588.17 545.966 2585.11 545.136 2581.34C544.307 2577.56 542.608 2573.31 540.042 2568.58C537.475 2563.85 534.813 2558.75 532.055 2553.29C529.169 2547.94 527.017 2542.4 525.597 2536.66C524.177 2530.93 524.262 2525.11 525.853 2519.22C527.316 2513.44 531.168 2507.81 537.411 2502.34C544.927 2495.76 552.651 2492.37 560.584 2492.18C568.278 2491.97 575.989 2494.22 583.716 2498.93C591.205 2503.63 598.408 2509.93 605.325 2517.82C611.46 2524.83 616.513 2531.89 620.482 2538.99C624.467 2545.85 627.608 2551.88 629.904 2557.07L609.075 2575.31L603.818 2573.16C603.227 2569.41 601.632 2564.5 599.033 2558.45C596.434 2552.4 591.676 2545.42 584.759 2537.52C581.636 2533.95 578.656 2530.94 575.819 2528.47C572.855 2526.11 570.011 2524.66 567.287 2524.12C564.563 2523.58 562.118 2524.26 559.953 2526.16C557.15 2528.61 556.227 2531.67 557.185 2535.33C557.903 2538.98 559.665 2543.18 562.47 2547.92C565.164 2552.54 567.954 2557.53 570.839 2562.88C573.613 2568.1 575.766 2573.65 577.297 2579.51C578.718 2585.24 578.569 2591.11 576.851 2597.12C574.894 2603.11 570.539 2609.06 563.788 2614.97C558.055 2619.99 552.377 2623.28 546.755 2624.82C541.021 2626.24 535.39 2626.11 529.861 2624.42C524.222 2622.61 518.661 2619.6 513.18 2615.4C507.587 2611.07 502.001 2605.72 496.423 2599.35C491.068 2593.23 486.773 2587.43 483.537 2581.93C480.062 2576.42 477.408 2571.21 475.574 2566.29Z" fill="#141118"/>
<path d="M396.058 2224.2L381.3 2236.05L328.645 2263.07C323.372 2265.77 319.198 2268.58 316.123 2271.49C312.971 2274.25 311.535 2278.13 311.814 2283.12C311.865 2288.04 314.21 2295.03 318.848 2304.07C321.476 2309.19 324.44 2313.85 327.741 2318.06C330.813 2322.19 334.718 2326.28 339.455 2330.32L339.515 2336L316.916 2347.59C311.254 2342.12 306.538 2336.46 302.766 2330.59C298.994 2324.72 295.948 2319.53 293.629 2315.01C285.822 2299.79 281.639 2287.19 281.081 2277.2C280.294 2267.13 282.63 2258.7 288.087 2251.9C293.394 2245.18 301.321 2239.12 311.867 2233.71L364.297 2206.81L381.448 2195.72L396.058 2224.2ZM415.003 2254.44C418.637 2261.53 421.138 2269 422.507 2276.86C423.649 2284.65 422.628 2292.12 419.446 2299.27C416.114 2306.5 409.4 2312.7 399.306 2317.88C391.17 2322.06 383.958 2323.95 377.668 2323.56C371.15 2323.1 365.488 2321.15 360.681 2317.72C355.874 2314.28 351.664 2309.97 348.05 2304.78C344.286 2299.67 341.013 2294.41 338.23 2288.98C336.916 2286.42 335.561 2283.6 334.166 2280.5C332.62 2277.49 331.185 2274.33 329.863 2271.01L329.603 2246.02L344.519 2238.37C344.574 2243.67 345.462 2248.92 347.182 2254.13C348.752 2259.41 351.121 2265.14 354.29 2271.32C358.929 2280.36 363.344 2286.18 367.536 2288.79C371.578 2291.47 376.687 2291.23 382.864 2288.06C389.343 2284.74 392.784 2280.69 393.189 2275.91C393.366 2271.07 391.599 2265.03 387.888 2257.79C382.709 2247.7 377.337 2240.94 371.773 2237.51C366.132 2233.94 360.622 2232.1 355.244 2232.01L362.8 2226.7L403.12 2236.85C405.496 2239.62 407.647 2242.52 409.571 2245.53C411.647 2248.46 413.457 2251.43 415.003 2254.44Z" fill="#141118"/>
<path d="M310.026 2018.13L289.898 2021.9L231.834 2040.47C224.254 2042.89 219.437 2047.01 217.385 2052.82C215.28 2058.47 215.827 2066.3 219.025 2076.3C220.675 2081.46 222.522 2085.85 224.567 2089.46C226.559 2092.91 228.72 2095.78 231.048 2098.06C233.325 2100.17 235.741 2101.89 238.295 2103.2L225.473 2107.3L196.659 2092.25C195.034 2089.39 193.57 2086.48 192.267 2083.52C190.913 2080.4 189.669 2077.06 188.534 2073.52C185.749 2064.81 184.596 2056.2 185.075 2047.69C185.393 2039.23 188.353 2031.53 193.954 2024.58C199.393 2017.69 208.484 2012.2 221.226 2008.13L279.531 1989.48L298.112 1980.88L310.026 2018.13ZM336.948 2102.33L316.82 2106.09L231.66 2133.33L213.563 2141.78L204.28 2112.75L216.697 2102.38L306.454 2073.68L325.035 2065.07L336.948 2102.33Z" fill="#141118"/>
<path d="M259.786 1804.4L241.988 1810.84L183.426 1819.39C177.562 1820.25 172.704 1821.55 168.854 1823.31C164.979 1824.9 162.367 1828.11 161.016 1832.93C159.473 1837.6 159.436 1844.97 160.902 1855.02C161.734 1860.72 163.031 1866.09 164.794 1871.14C166.365 1876.04 168.74 1881.17 171.917 1886.52L170.137 1891.92L145.003 1895.59C141.414 1888.58 138.783 1881.69 137.11 1874.92C135.438 1868.15 134.235 1862.25 133.501 1857.22C131.032 1840.3 131.148 1827.02 133.849 1817.38C136.358 1807.6 141.294 1800.38 148.656 1795.71C155.85 1791.07 165.312 1787.89 177.041 1786.18L235.351 1777.67L255.165 1772.73L259.786 1804.4ZM267.936 1839.14C269.085 1847.02 269.037 1854.9 267.791 1862.78C266.354 1870.52 262.973 1877.26 257.65 1883C252.159 1888.76 243.801 1892.46 232.574 1894.1C223.526 1895.42 216.089 1894.88 210.262 1892.48C204.244 1889.94 199.515 1886.26 196.077 1881.46C192.638 1876.66 190.047 1871.22 188.305 1865.14C186.395 1859.09 185 1853.04 184.12 1847.01C183.704 1844.16 183.335 1841.05 183.014 1837.67C182.525 1834.32 182.191 1830.86 182.013 1827.3L189.845 1803.56L206.433 1801.14C204.772 1806.18 203.914 1811.44 203.858 1816.92C203.635 1822.43 204.025 1828.62 205.027 1835.49C206.494 1845.54 208.79 1852.48 211.914 1856.3C214.871 1860.15 219.785 1861.57 226.655 1860.57C233.86 1859.52 238.426 1856.8 240.352 1852.41C242.087 1847.88 242.368 1841.59 241.194 1833.55C239.556 1822.32 236.658 1814.19 232.5 1809.15C228.318 1803.94 223.697 1800.42 218.639 1798.59L227.504 1796.02L262.379 1818.65C263.73 1822.05 264.83 1825.48 265.678 1828.95C266.695 1832.4 267.447 1835.79 267.936 1839.14Z" fill="#141118"/>
<path d="M244.812 1579.91L224.539 1577.01L163.588 1575.95C155.631 1575.81 149.747 1578.17 145.936 1583.01C142.129 1587.69 140.134 1595.27 139.951 1605.77C139.857 1611.19 140.198 1615.94 140.974 1620.01C141.752 1623.92 142.878 1627.33 144.352 1630.24C145.829 1632.97 147.565 1635.37 149.561 1637.44L136.102 1637.2L113.647 1613.7C113.026 1610.47 112.574 1607.24 112.292 1604.02C112.012 1600.63 111.905 1597.07 111.969 1593.34C112.129 1584.2 113.801 1575.68 116.987 1567.77C120.004 1559.87 125.28 1553.52 132.815 1548.74C140.181 1543.96 150.551 1541.68 163.927 1541.92L225.131 1542.98L245.492 1540.8L244.812 1579.91ZM243.273 1668.29L223 1665.39L133.606 1663.84L113.752 1666.03L114.283 1635.55L129.373 1629.72L223.593 1631.36L243.954 1629.18L243.273 1668.29Z" fill="#141118"/>
<path d="M275.724 1443.92C276.948 1441.9 277.892 1440.01 278.556 1438.23C279.416 1436.32 280.026 1434.37 280.387 1432.37C281.138 1428.2 280.867 1424.45 279.575 1421.12C278.449 1417.82 275.771 1415.02 271.542 1412.71L260.719 1406.89L121.673 1430.86L128.162 1394.86L147.561 1393.2L208.024 1384.23L230.132 1386.15L230.492 1384.15L209.105 1378.23L155.626 1348.45L138.029 1340.12L144.563 1303.88L292.226 1389.6C298.109 1393.24 302.379 1397.71 305.037 1403C307.893 1408.16 309.491 1413.61 309.833 1419.35C310.342 1425.12 310.07 1430.92 309.019 1436.76C308.538 1439.42 307.861 1442.23 306.987 1445.16C306.113 1448.1 304.807 1451.05 303.07 1454.01L277.323 1449.37L275.724 1443.92Z" fill="#141118"/>
<path d="M318.408 1159.14L299.649 1156.61L243.79 1137.06C238.196 1135.1 233.286 1134.01 229.058 1133.79C224.887 1133.4 221.087 1135.03 217.658 1138.68C214.126 1142.11 210.682 1148.61 207.325 1158.2C205.423 1163.64 204.084 1169 203.309 1174.29C202.429 1179.37 202.157 1185.01 202.493 1191.23L198.417 1195.18L174.443 1186.79C174.508 1178.92 175.367 1171.6 177.021 1164.82C178.676 1158.04 180.342 1152.26 182.021 1147.46C187.671 1131.32 193.925 1119.61 200.782 1112.32C207.535 1104.81 215.255 1100.7 223.941 1099.97C232.468 1099.19 242.325 1100.76 253.513 1104.67L309.132 1124.14L328.982 1128.94L318.408 1159.14ZM309.537 1193.71C306.907 1201.23 303.215 1208.19 298.46 1214.59C293.601 1220.79 287.483 1225.19 280.107 1227.82C272.571 1230.38 263.449 1229.79 252.741 1226.04C244.11 1223.02 237.769 1219.1 233.718 1214.27C229.563 1209.23 227.074 1203.78 226.251 1197.93C225.428 1192.08 225.652 1186.06 226.923 1179.87C228.034 1173.62 229.596 1167.62 231.61 1161.86C232.562 1159.14 233.676 1156.22 234.955 1153.08C236.074 1149.88 237.381 1146.66 238.875 1143.41L256.809 1126.01L272.631 1131.55C268.827 1135.24 265.63 1139.5 263.041 1144.34C260.292 1149.12 257.77 1154.78 255.477 1161.33C252.12 1170.92 250.941 1178.14 251.94 1182.97C252.778 1187.75 256.474 1191.29 263.027 1193.58C269.9 1195.99 275.206 1195.69 278.946 1192.69C282.582 1189.48 285.743 1184.04 288.428 1176.37C292.177 1165.66 293.376 1157.11 292.025 1150.72C290.731 1144.16 288.266 1138.9 284.63 1134.94L293.68 1136.76L314.105 1172.98C313.729 1176.61 313.113 1180.16 312.258 1183.63C311.563 1187.16 310.656 1190.52 309.537 1193.71Z" fill="#141118"/>
<path d="M425.972 920.746L410.28 907.59L335.596 859.365L317.148 850.476L331.891 827.644L346.685 832.359L349.579 827.878L428.743 878.997L446.778 888.526L425.972 920.746ZM376.266 860.531L353.647 845.926L343.678 809.858C344.86 803.97 347.105 798.465 350.412 793.344C352.249 790.498 354.325 787.908 356.639 785.573C358.811 783.146 361.339 780.948 364.222 778.98L389.187 795.101L388.566 800.746C385.214 802.815 382.452 805.063 380.28 807.49C378.108 809.918 376.333 812.198 374.955 814.332C371.189 820.164 368.896 827.149 368.076 835.287C367.347 843.283 370.077 851.697 376.266 860.531Z" fill="#141118"/>
<path d="M571.724 718.415L555.225 709.136L510.536 670.336C506.061 666.45 501.9 663.623 498.055 661.853C494.32 659.956 490.186 660.068 485.655 662.188C481.106 664.069 475.501 668.846 468.84 676.518C465.066 680.865 461.841 685.354 459.167 689.984C456.476 694.375 454.138 699.521 452.154 705.423L446.905 707.593L427.725 690.941C430.692 683.65 434.196 677.161 438.236 671.474C442.276 665.788 445.961 661.027 449.292 657.191C460.504 644.276 470.642 635.699 479.706 631.459C488.753 626.98 497.447 626.006 505.788 628.539C514.001 630.96 522.582 636.057 531.533 643.828L576.03 682.461L592.706 694.248L571.724 718.415ZM550.712 747.265C545.495 753.274 539.493 758.379 532.707 762.579C525.904 766.539 518.592 768.376 510.769 768.087C502.819 767.688 494.56 763.769 485.993 756.331C479.088 750.336 474.645 744.348 472.663 738.366C470.663 732.145 470.361 726.165 471.757 720.425C473.153 714.684 475.585 709.171 479.053 703.885C482.393 698.488 486.062 693.488 490.058 688.885C491.946 686.711 494.063 684.401 496.411 681.955C498.632 679.398 501.035 676.888 503.623 674.424L526.716 664.873L539.374 675.864C534.476 677.89 529.931 680.671 525.739 684.208C521.419 687.633 516.983 691.967 512.432 697.21C505.771 704.882 502.012 711.148 501.154 716.01C500.169 720.761 502.298 725.412 507.54 729.964C513.038 734.738 518.078 736.423 522.661 735.019C527.226 733.377 532.173 729.487 537.502 723.349C544.94 714.782 549.212 707.279 550.319 700.839C551.536 694.271 551.187 688.474 549.272 683.448L557.009 688.484L562.616 729.68C560.924 732.92 559.04 735.994 556.964 738.901C555.017 741.92 552.933 744.707 550.712 747.265Z" fill="#141118"/>
<path d="M724.481 566.802L709.656 555.031L671.663 509.655C667.858 505.111 664.197 501.661 660.679 499.306C657.291 496.842 653.192 496.299 648.382 497.676C643.593 498.815 637.304 502.645 629.514 509.168C625.099 512.864 621.206 516.786 617.833 520.935C614.482 524.845 611.36 529.557 608.468 535.071L602.942 536.385L586.636 516.91C590.718 510.18 595.203 504.326 600.091 499.35C604.98 494.373 609.371 490.255 613.266 486.993C626.379 476.014 637.746 469.147 647.366 466.393C657.007 463.4 665.745 463.813 673.581 467.633C681.308 471.322 688.976 477.711 696.586 486.799L734.416 531.981L749.019 546.256L724.481 566.802ZM699.173 591.967C693.071 597.077 686.337 601.168 678.973 604.242C671.63 607.078 664.119 607.735 656.44 606.214C648.653 604.562 641.118 599.387 633.834 590.689C627.964 583.678 624.523 577.062 623.511 570.842C622.52 564.384 623.168 558.431 625.453 552.983C627.739 547.536 631.012 542.477 635.272 537.806C639.423 533.004 643.836 528.647 648.51 524.734C650.717 522.886 653.173 520.939 655.879 518.895C658.476 516.721 661.246 514.622 664.19 512.599L688.502 506.819L699.264 519.672C694.107 520.898 689.179 522.926 684.481 525.755C679.674 528.455 674.609 532.033 669.286 536.49C661.496 543.013 656.794 548.607 655.179 553.272C653.455 557.807 654.821 562.736 659.278 568.06C663.953 573.642 668.663 576.103 673.41 575.441C678.177 574.541 683.677 571.482 689.909 566.264C698.608 558.981 704.013 552.247 706.123 546.063C708.363 539.771 708.935 533.991 707.839 528.725L714.683 534.921L713.706 576.486C711.523 579.418 709.177 582.155 706.668 584.698C704.268 587.37 701.769 589.793 699.173 591.967Z" fill="#141118"/>
<path d="M973.5 399.064L965.949 380.029L936.615 326.591C932.786 319.614 927.971 315.593 922.17 314.527C916.37 313.462 909.313 315.21 901 319.773C895.657 322.707 891.455 325.785 888.396 329.01C885.255 332.086 882.986 335.167 881.589 338.252C880.11 341.188 879.118 343.955 878.611 346.551L867.244 325.843L875.418 304.84C878.641 301.913 881.951 299.323 885.351 297.07C888.669 294.669 892.035 292.532 895.449 290.658C904.207 285.85 912.808 282.868 921.251 281.71C929.613 280.404 937.591 281.917 945.184 286.248C952.844 290.35 959.893 298.264 966.33 309.99L995.785 363.652L1007.79 380.242L973.5 399.064ZM832.333 476.553L824.782 457.518L782.004 379.587L770 362.997L793.379 350.163L815.263 369.444L854.619 441.14L866.623 457.731L832.333 476.553ZM902.917 437.809L895.365 418.774L866.032 365.335C862.202 358.359 857.387 354.337 851.587 353.272C845.786 352.206 838.73 353.955 830.417 358.518C826.112 360.881 822.531 363.33 819.672 365.864C816.814 368.399 814.49 371.027 812.7 373.748C811.058 376.388 809.835 379.087 809.032 381.846L802.554 370.045L809.288 341.141C812.295 338.524 815.457 336.016 818.776 333.615C822.242 331.132 825.608 328.995 828.874 327.202C836.296 323.128 843.932 320.675 851.781 319.844C859.698 318.782 867.379 320.457 874.823 324.87C882.335 329.053 889.309 337.008 895.746 348.735L925.202 402.396L937.206 418.987L902.917 437.809Z" fill="#141118"/>
<path d="M1128.32 333.668C1123.05 335.529 1118.12 335.562 1113.54 333.768C1109.06 331.759 1105.77 327.8 1103.69 321.892C1101.66 316.144 1101.76 311.081 1103.98 306.704C1106.37 302.27 1110.19 299.123 1115.46 297.263C1120.57 295.459 1125.45 295.533 1130.09 297.486C1134.73 299.44 1138.06 303.29 1140.09 309.038C1142.18 314.946 1142.03 320.117 1139.64 324.551C1137.2 328.825 1133.43 331.864 1128.32 333.668Z" fill="#141118"/>
</svg>
