<svg width="64" height="64" viewBox="0 0 64 64" fill="none" xmlns="http://www.w3.org/2000/svg">
<g clip-path="url(#clip0_2312_42)">
<ellipse cx="32" cy="31.215" rx="32" ry="31.215" fill="white"/>
<path fill-rule="evenodd" clip-rule="evenodd" d="M31.9988 0.0108C14.3293 0.0108 0 14.3377 0 32.0095C0 46.1487 9.1678 58.1393 21.8826 62.3725C23.483 62.6689 24.0712 61.6768 24.0712 60.8311C24.0712 60.0681 24.0393 57.5476 24.0263 54.8759C15.1231 56.8118 13.2463 51.0987 13.2463 51.0987C11.7911 47.3994 9.6934 46.4156 9.6934 46.4156C6.7902 44.4277 9.9143 44.4714 9.9143 44.4714C13.1269 44.6959 14.8183 47.7668 14.8183 47.7668C17.6743 52.659 22.3066 51.2428 24.1314 50.4266C24.4196 48.3585 25.2464 46.9459 26.1629 46.1463C19.0549 45.3396 11.5832 42.5947 11.5832 30.3323C11.5832 26.8397 12.8352 23.9838 14.8797 21.7443C14.5467 20.9365 13.4506 17.6837 15.188 13.2769C15.188 13.2769 17.875 12.4159 23.9909 16.5569C26.5421 15.8494 29.2787 15.4927 31.9965 15.4809C34.7165 15.4927 37.4579 15.8482 40.0127 16.5569C46.1203 12.4183 48.8049 13.2769 48.8049 13.2769C50.5447 17.6849 49.4534 20.94 49.1203 21.7444C51.1719 23.9838 52.4133 26.8397 52.4133 30.3323C52.4133 42.623 44.925 45.3253 37.8016 46.1179C38.9497 47.11 39.9749 49.0577 39.9749 52.0412C39.9749 56.3204 39.9383 59.7692 39.9383 60.8216C39.9383 61.6732 40.5147 62.6689 42.1375 62.357C54.8451 58.1216 64.0012 46.1296 64.0012 31.9988C64.0012 14.3293 49.6743 0 32.0012 0L31.9989 0.0107L31.9988 0.0108Z" fill="#4F4AB5"/>
</g>
<defs>
<clipPath id="clip0_2312_42">
<rect width="64" height="64" fill="white"/>
</clipPath>
</defs>
</svg>
