<svg width="512" height="510" viewBox="0 0 512 510" fill="none" xmlns="http://www.w3.org/2000/svg">
<g clip-path="url(#clip0_2304_40)">
<path d="M396.39 0H115.61C51.7604 0 0 51.7604 0 115.61V394.03C0 457.88 51.7604 509.64 115.61 509.64H396.39C460.24 509.64 512 457.88 512 394.03V115.61C512 51.7604 460.24 0 396.39 0Z" fill="#4F4AB5"/>
<path fill-rule="evenodd" clip-rule="evenodd" d="M224.271 202.344H273.367V227.617H274.081C280.919 215.301 297.639 202.344 322.57 202.344C374.414 202.344 384 234.743 384 276.89V366H332.801L332.793 286.638C332.793 268.491 332.422 245.139 306.169 245.139C279.515 245.139 275.424 264.886 275.424 285.319V366H224.271V202.344ZM195.256 152.736C195.256 167.491 183.325 179.472 168.632 179.472C153.931 179.472 142 167.491 142 152.736C142 137.973 153.931 126 168.632 126C183.325 126 195.256 137.973 195.256 152.736ZM142 202.344H195.256V366H142V202.344Z" fill="white"/>
</g>
<defs>
<clipPath id="clip0_2304_40">
<rect width="512" height="509.64" rx="250" fill="white"/>
</clipPath>
</defs>
</svg>
