<svg width="112" height="123" viewBox="0 0 112 123" fill="none" xmlns="http://www.w3.org/2000/svg">
<g clip-path="url(#clip0_2335_40)">
<path fill-rule="evenodd" clip-rule="evenodd" d="M40.9101 55.32L40.6401 72.04H58.1501C61.8601 72.04 64.8901 75.07 64.8901 78.78V85.52H64.8201V111.88C64.8201 115.59 61.7901 118.62 58.0801 118.62H51.3401V87.46C51.3401 84.51 50.2301 85.53 46.8901 85.53H31.8301V85.49H23.1901C17.6101 85.49 13.0501 80.93 13.0501 75.35V40.18C13.0501 34.51 17.6901 29.87 23.3601 29.87H28.4601C39.0801 29.87 37.3901 37.18 42.0901 41.78C46.7301 46.32 45.5601 46.84 51.9001 46.84H65.5601C76.8701 46.84 70.7901 57.83 64.0901 57.49H51.5701C45.9901 57.49 45.5201 58.38 40.9101 55.32ZM76.4801 57.55C74.8501 57.55 73.5301 56.23 73.5301 54.6C73.5301 52.97 74.8501 51.65 76.4801 51.65H95.4701L105.64 30.95C106.35 29.49 108.12 28.89 109.58 29.6C111.04 30.31 111.64 32.08 110.93 33.53L100.06 55.65C99.6401 56.76 98.5601 57.55 97.3001 57.55H76.4801ZM50.0901 59.66H107.3C107.63 59.66 107.9 59.94 107.9 60.26V68.85C107.9 69.17 107.62 69.45 107.3 69.45H104.6V122.09C104.6 122.53 104.24 122.88 103.81 122.88H97.0201C96.5801 122.88 96.2301 122.52 96.2301 122.09V69.45H50.0901C49.7701 69.45 49.4901 69.18 49.4901 68.85V60.26C49.4901 59.93 49.7601 59.66 50.0901 59.66ZM5.54012 112.32C5.59012 111.91 5.78012 111.51 6.09012 111.19C8.42012 108.84 11.3701 106.92 14.7401 105.61C17.1001 104.69 19.6501 104.07 22.3301 103.8L21.8201 95.77H3.54012C1.64012 95.77 0.0701166 94.21 0.0701166 92.3C0.0701166 77.95 3.45012 67.16 0.0701166 50.82C-0.929883 45.98 9.06012 45.28 9.06012 51.08V87.85H43.6401C45.5501 87.85 47.1001 90.39 47.1001 92.3V95C47.1001 95.42 46.7501 95.76 46.3401 95.76H27.9901L27.2801 103.71C30.1201 103.9 32.8401 104.48 35.3401 105.39C38.5601 106.56 41.4101 108.29 43.7401 110.41C44.3001 110.92 44.5001 111.67 44.3201 112.36C45.2201 113.03 45.8001 114.1 45.8001 115.31C45.8001 117.35 44.1501 119 42.1101 119C40.0701 119 38.4301 117.35 38.4301 115.31C38.4301 114.09 39.0201 113.01 39.9301 112.34C38.2101 111 36.2001 109.89 34.0001 109.09C31.6301 108.22 29.0201 107.7 26.2701 107.61L25.8701 111.59L25.8501 111.76C27.4101 112.19 28.5501 113.62 28.5501 115.31C28.5501 117.35 26.9001 119 24.8701 119C22.8301 119 21.1801 117.35 21.1801 115.31C21.1801 113.63 22.3101 112.21 23.8501 111.77L23.8401 111.58L23.5601 107.64C20.9301 107.82 18.4401 108.38 16.1801 109.26H16.1701C13.9701 110.12 11.9801 111.28 10.2801 112.68C10.9601 113.35 11.3801 114.28 11.3801 115.31C11.3801 117.35 9.73012 119 7.70012 119C5.66012 119 4.01012 117.35 4.01012 115.31C4.00012 114.08 4.61012 112.99 5.54012 112.32ZM35.0401 0C42.8301 0 49.1401 6.31 49.1401 14.1C49.1401 21.89 42.8301 28.2 35.0401 28.2C27.2501 28.2 20.9401 21.89 20.9401 14.1C20.9401 6.31 27.2501 0 35.0401 0Z" fill="#231F45"/>
</g>
<defs>
<clipPath id="clip0_2335_40">
<rect width="111.23" height="122.88" fill="white"/>
</clipPath>
</defs>
</svg>
